%TF.GenerationSoftware,KiCad,Pcbnew,(6.0.1)*%
%TF.CreationDate,2022-05-20T14:01:48-07:00*%
%TF.ProjectId,ratt-rounded,72617474-2d72-46f7-956e-6465642e6b69,rev?*%
%TF.SameCoordinates,Original*%
%TF.FileFunction,Legend,Top*%
%TF.FilePolarity,Positive*%
%FSLAX46Y46*%
G04 Gerber Fmt 4.6, Leading zero omitted, Abs format (unit mm)*
G04 Created by KiCad (PCBNEW (6.0.1)) date 2022-05-20 14:01:48*
%MOMM*%
%LPD*%
G01*
G04 APERTURE LIST*
%ADD10C,0.150000*%
%ADD11C,0.375000*%
%ADD12C,0.187500*%
%ADD13C,0.120000*%
G04 APERTURE END LIST*
D10*
X33735952Y-43204761D02*
X33878809Y-43252380D01*
X34116904Y-43252380D01*
X34212142Y-43204761D01*
X34259761Y-43157142D01*
X34307380Y-43061904D01*
X34307380Y-42966666D01*
X34259761Y-42871428D01*
X34212142Y-42823809D01*
X34116904Y-42776190D01*
X33926428Y-42728571D01*
X33831190Y-42680952D01*
X33783571Y-42633333D01*
X33735952Y-42538095D01*
X33735952Y-42442857D01*
X33783571Y-42347619D01*
X33831190Y-42300000D01*
X33926428Y-42252380D01*
X34164523Y-42252380D01*
X34307380Y-42300000D01*
X34640714Y-42585714D02*
X34831190Y-43252380D01*
X35021666Y-42776190D01*
X35212142Y-43252380D01*
X35402619Y-42585714D01*
X36164523Y-43204761D02*
X36069285Y-43252380D01*
X35878809Y-43252380D01*
X35783571Y-43204761D01*
X35735952Y-43109523D01*
X35735952Y-42728571D01*
X35783571Y-42633333D01*
X35878809Y-42585714D01*
X36069285Y-42585714D01*
X36164523Y-42633333D01*
X36212142Y-42728571D01*
X36212142Y-42823809D01*
X35735952Y-42919047D01*
X37021666Y-43204761D02*
X36926428Y-43252380D01*
X36735952Y-43252380D01*
X36640714Y-43204761D01*
X36593095Y-43109523D01*
X36593095Y-42728571D01*
X36640714Y-42633333D01*
X36735952Y-42585714D01*
X36926428Y-42585714D01*
X37021666Y-42633333D01*
X37069285Y-42728571D01*
X37069285Y-42823809D01*
X36593095Y-42919047D01*
X37497857Y-42585714D02*
X37497857Y-43585714D01*
X37497857Y-42633333D02*
X37593095Y-42585714D01*
X37783571Y-42585714D01*
X37878809Y-42633333D01*
X37926428Y-42680952D01*
X37974047Y-42776190D01*
X37974047Y-43061904D01*
X37926428Y-43157142D01*
X37878809Y-43204761D01*
X37783571Y-43252380D01*
X37593095Y-43252380D01*
X37497857Y-43204761D01*
X20484047Y-43282380D02*
X20484047Y-42282380D01*
X20722142Y-42282380D01*
X20865000Y-42330000D01*
X20960238Y-42425238D01*
X21007857Y-42520476D01*
X21055476Y-42710952D01*
X21055476Y-42853809D01*
X21007857Y-43044285D01*
X20960238Y-43139523D01*
X20865000Y-43234761D01*
X20722142Y-43282380D01*
X20484047Y-43282380D01*
X21484047Y-43282380D02*
X21484047Y-42615714D01*
X21484047Y-42282380D02*
X21436428Y-42330000D01*
X21484047Y-42377619D01*
X21531666Y-42330000D01*
X21484047Y-42282380D01*
X21484047Y-42377619D01*
X21912619Y-43234761D02*
X22007857Y-43282380D01*
X22198333Y-43282380D01*
X22293571Y-43234761D01*
X22341190Y-43139523D01*
X22341190Y-43091904D01*
X22293571Y-42996666D01*
X22198333Y-42949047D01*
X22055476Y-42949047D01*
X21960238Y-42901428D01*
X21912619Y-42806190D01*
X21912619Y-42758571D01*
X21960238Y-42663333D01*
X22055476Y-42615714D01*
X22198333Y-42615714D01*
X22293571Y-42663333D01*
X22626904Y-42615714D02*
X23007857Y-42615714D01*
X22769761Y-42282380D02*
X22769761Y-43139523D01*
X22817380Y-43234761D01*
X22912619Y-43282380D01*
X23007857Y-43282380D01*
X23484047Y-43282380D02*
X23388809Y-43234761D01*
X23341190Y-43187142D01*
X23293571Y-43091904D01*
X23293571Y-42806190D01*
X23341190Y-42710952D01*
X23388809Y-42663333D01*
X23484047Y-42615714D01*
X23626904Y-42615714D01*
X23722142Y-42663333D01*
X23769761Y-42710952D01*
X23817380Y-42806190D01*
X23817380Y-43091904D01*
X23769761Y-43187142D01*
X23722142Y-43234761D01*
X23626904Y-43282380D01*
X23484047Y-43282380D01*
X24245952Y-43282380D02*
X24245952Y-42615714D01*
X24245952Y-42806190D02*
X24293571Y-42710952D01*
X24341190Y-42663333D01*
X24436428Y-42615714D01*
X24531666Y-42615714D01*
X24722142Y-42615714D02*
X25103095Y-42615714D01*
X24865000Y-42282380D02*
X24865000Y-43139523D01*
X24912619Y-43234761D01*
X25007857Y-43282380D01*
X25103095Y-43282380D01*
X25436428Y-43282380D02*
X25436428Y-42615714D01*
X25436428Y-42282380D02*
X25388809Y-42330000D01*
X25436428Y-42377619D01*
X25484047Y-42330000D01*
X25436428Y-42282380D01*
X25436428Y-42377619D01*
X26055476Y-43282380D02*
X25960238Y-43234761D01*
X25912619Y-43187142D01*
X25865000Y-43091904D01*
X25865000Y-42806190D01*
X25912619Y-42710952D01*
X25960238Y-42663333D01*
X26055476Y-42615714D01*
X26198333Y-42615714D01*
X26293571Y-42663333D01*
X26341190Y-42710952D01*
X26388809Y-42806190D01*
X26388809Y-43091904D01*
X26341190Y-43187142D01*
X26293571Y-43234761D01*
X26198333Y-43282380D01*
X26055476Y-43282380D01*
X26817380Y-42615714D02*
X26817380Y-43282380D01*
X26817380Y-42710952D02*
X26865000Y-42663333D01*
X26960238Y-42615714D01*
X27103095Y-42615714D01*
X27198333Y-42663333D01*
X27245952Y-42758571D01*
X27245952Y-43282380D01*
X47714047Y-42758571D02*
X47380714Y-42758571D01*
X47380714Y-43282380D02*
X47380714Y-42282380D01*
X47856904Y-42282380D01*
X48237857Y-43282380D02*
X48237857Y-42615714D01*
X48237857Y-42282380D02*
X48190238Y-42330000D01*
X48237857Y-42377619D01*
X48285476Y-42330000D01*
X48237857Y-42282380D01*
X48237857Y-42377619D01*
X48856904Y-43282380D02*
X48761666Y-43234761D01*
X48714047Y-43139523D01*
X48714047Y-42282380D01*
X49095000Y-42615714D02*
X49475952Y-42615714D01*
X49237857Y-42282380D02*
X49237857Y-43139523D01*
X49285476Y-43234761D01*
X49380714Y-43282380D01*
X49475952Y-43282380D01*
X50190238Y-43234761D02*
X50095000Y-43282380D01*
X49904523Y-43282380D01*
X49809285Y-43234761D01*
X49761666Y-43139523D01*
X49761666Y-42758571D01*
X49809285Y-42663333D01*
X49904523Y-42615714D01*
X50095000Y-42615714D01*
X50190238Y-42663333D01*
X50237857Y-42758571D01*
X50237857Y-42853809D01*
X49761666Y-42949047D01*
X50666428Y-43282380D02*
X50666428Y-42615714D01*
X50666428Y-42806190D02*
X50714047Y-42710952D01*
X50761666Y-42663333D01*
X50856904Y-42615714D01*
X50952142Y-42615714D01*
X32790476Y-26802380D02*
X32457142Y-26326190D01*
X32219047Y-26802380D02*
X32219047Y-25802380D01*
X32600000Y-25802380D01*
X32695238Y-25850000D01*
X32742857Y-25897619D01*
X32790476Y-25992857D01*
X32790476Y-26135714D01*
X32742857Y-26230952D01*
X32695238Y-26278571D01*
X32600000Y-26326190D01*
X32219047Y-26326190D01*
X33647619Y-26802380D02*
X33647619Y-26278571D01*
X33600000Y-26183333D01*
X33504761Y-26135714D01*
X33314285Y-26135714D01*
X33219047Y-26183333D01*
X33647619Y-26754761D02*
X33552380Y-26802380D01*
X33314285Y-26802380D01*
X33219047Y-26754761D01*
X33171428Y-26659523D01*
X33171428Y-26564285D01*
X33219047Y-26469047D01*
X33314285Y-26421428D01*
X33552380Y-26421428D01*
X33647619Y-26373809D01*
X33980952Y-26135714D02*
X34361904Y-26135714D01*
X34123809Y-25802380D02*
X34123809Y-26659523D01*
X34171428Y-26754761D01*
X34266666Y-26802380D01*
X34361904Y-26802380D01*
X34647619Y-26754761D02*
X34742857Y-26802380D01*
X34933333Y-26802380D01*
X35028571Y-26754761D01*
X35076190Y-26659523D01*
X35076190Y-26611904D01*
X35028571Y-26516666D01*
X34933333Y-26469047D01*
X34790476Y-26469047D01*
X34695238Y-26421428D01*
X34647619Y-26326190D01*
X34647619Y-26278571D01*
X34695238Y-26183333D01*
X34790476Y-26135714D01*
X34933333Y-26135714D01*
X35028571Y-26183333D01*
X35361904Y-26135714D02*
X35742857Y-26135714D01*
X35504761Y-25802380D02*
X35504761Y-26659523D01*
X35552380Y-26754761D01*
X35647619Y-26802380D01*
X35742857Y-26802380D01*
X36219047Y-26802380D02*
X36123809Y-26754761D01*
X36076190Y-26707142D01*
X36028571Y-26611904D01*
X36028571Y-26326190D01*
X36076190Y-26230952D01*
X36123809Y-26183333D01*
X36219047Y-26135714D01*
X36361904Y-26135714D01*
X36457142Y-26183333D01*
X36504761Y-26230952D01*
X36552380Y-26326190D01*
X36552380Y-26611904D01*
X36504761Y-26707142D01*
X36457142Y-26754761D01*
X36361904Y-26802380D01*
X36219047Y-26802380D01*
X36980952Y-26802380D02*
X36980952Y-26135714D01*
X36980952Y-26326190D02*
X37028571Y-26230952D01*
X37076190Y-26183333D01*
X37171428Y-26135714D01*
X37266666Y-26135714D01*
X37457142Y-26135714D02*
X37838095Y-26135714D01*
X37600000Y-25802380D02*
X37600000Y-26659523D01*
X37647619Y-26754761D01*
X37742857Y-26802380D01*
X37838095Y-26802380D01*
X38171428Y-26802380D02*
X38171428Y-26135714D01*
X38171428Y-25802380D02*
X38123809Y-25850000D01*
X38171428Y-25897619D01*
X38219047Y-25850000D01*
X38171428Y-25802380D01*
X38171428Y-25897619D01*
X38790476Y-26802380D02*
X38695238Y-26754761D01*
X38647619Y-26707142D01*
X38600000Y-26611904D01*
X38600000Y-26326190D01*
X38647619Y-26230952D01*
X38695238Y-26183333D01*
X38790476Y-26135714D01*
X38933333Y-26135714D01*
X39028571Y-26183333D01*
X39076190Y-26230952D01*
X39123809Y-26326190D01*
X39123809Y-26611904D01*
X39076190Y-26707142D01*
X39028571Y-26754761D01*
X38933333Y-26802380D01*
X38790476Y-26802380D01*
X39552380Y-26135714D02*
X39552380Y-26802380D01*
X39552380Y-26230952D02*
X39600000Y-26183333D01*
X39695238Y-26135714D01*
X39838095Y-26135714D01*
X39933333Y-26183333D01*
X39980952Y-26278571D01*
X39980952Y-26802380D01*
D11*
X34690000Y-50388571D02*
X34690000Y-48888571D01*
X35404286Y-50388571D02*
X35404286Y-48888571D01*
X36261429Y-50388571D01*
X36261429Y-48888571D01*
D10*
X28746428Y-35621428D02*
X28710714Y-35728571D01*
X28710714Y-35907142D01*
X28746428Y-35978571D01*
X28782142Y-36014285D01*
X28853571Y-36050000D01*
X28925000Y-36050000D01*
X28996428Y-36014285D01*
X29032142Y-35978571D01*
X29067857Y-35907142D01*
X29103571Y-35764285D01*
X29139285Y-35692857D01*
X29175000Y-35657142D01*
X29246428Y-35621428D01*
X29317857Y-35621428D01*
X29389285Y-35657142D01*
X29425000Y-35692857D01*
X29460714Y-35764285D01*
X29460714Y-35942857D01*
X29425000Y-36050000D01*
X28710714Y-36478571D02*
X28746428Y-36407142D01*
X28782142Y-36371428D01*
X28853571Y-36335714D01*
X29067857Y-36335714D01*
X29139285Y-36371428D01*
X29175000Y-36407142D01*
X29210714Y-36478571D01*
X29210714Y-36585714D01*
X29175000Y-36657142D01*
X29139285Y-36692857D01*
X29067857Y-36728571D01*
X28853571Y-36728571D01*
X28782142Y-36692857D01*
X28746428Y-36657142D01*
X28710714Y-36585714D01*
X28710714Y-36478571D01*
X29210714Y-37050000D02*
X28710714Y-37050000D01*
X29139285Y-37050000D02*
X29175000Y-37085714D01*
X29210714Y-37157142D01*
X29210714Y-37264285D01*
X29175000Y-37335714D01*
X29103571Y-37371428D01*
X28710714Y-37371428D01*
X29210714Y-38050000D02*
X28603571Y-38050000D01*
X28532142Y-38014285D01*
X28496428Y-37978571D01*
X28460714Y-37907142D01*
X28460714Y-37800000D01*
X28496428Y-37728571D01*
X28746428Y-38050000D02*
X28710714Y-37978571D01*
X28710714Y-37835714D01*
X28746428Y-37764285D01*
X28782142Y-37728571D01*
X28853571Y-37692857D01*
X29067857Y-37692857D01*
X29139285Y-37728571D01*
X29175000Y-37764285D01*
X29210714Y-37835714D01*
X29210714Y-37978571D01*
X29175000Y-38050000D01*
X28710714Y-38978571D02*
X29460714Y-38978571D01*
X28710714Y-39407142D01*
X29460714Y-39407142D01*
X28710714Y-40085714D02*
X29103571Y-40085714D01*
X29175000Y-40050000D01*
X29210714Y-39978571D01*
X29210714Y-39835714D01*
X29175000Y-39764285D01*
X28746428Y-40085714D02*
X28710714Y-40014285D01*
X28710714Y-39835714D01*
X28746428Y-39764285D01*
X28817857Y-39728571D01*
X28889285Y-39728571D01*
X28960714Y-39764285D01*
X28996428Y-39835714D01*
X28996428Y-40014285D01*
X29032142Y-40085714D01*
X29210714Y-40764285D02*
X28603571Y-40764285D01*
X28532142Y-40728571D01*
X28496428Y-40692857D01*
X28460714Y-40621428D01*
X28460714Y-40514285D01*
X28496428Y-40442857D01*
X28746428Y-40764285D02*
X28710714Y-40692857D01*
X28710714Y-40550000D01*
X28746428Y-40478571D01*
X28782142Y-40442857D01*
X28853571Y-40407142D01*
X29067857Y-40407142D01*
X29139285Y-40442857D01*
X29175000Y-40478571D01*
X29210714Y-40550000D01*
X29210714Y-40692857D01*
X29175000Y-40764285D01*
X28710714Y-41442857D02*
X29103571Y-41442857D01*
X29175000Y-41407142D01*
X29210714Y-41335714D01*
X29210714Y-41192857D01*
X29175000Y-41121428D01*
X28746428Y-41442857D02*
X28710714Y-41371428D01*
X28710714Y-41192857D01*
X28746428Y-41121428D01*
X28817857Y-41085714D01*
X28889285Y-41085714D01*
X28960714Y-41121428D01*
X28996428Y-41192857D01*
X28996428Y-41371428D01*
X29032142Y-41442857D01*
D11*
X35023333Y-44517142D02*
X36166190Y-44517142D01*
X35594762Y-45088571D02*
X35594762Y-43945714D01*
X33990000Y-51428571D02*
X34275714Y-51428571D01*
X34418571Y-51500000D01*
X34561428Y-51642857D01*
X34632857Y-51928571D01*
X34632857Y-52428571D01*
X34561428Y-52714285D01*
X34418571Y-52857142D01*
X34275714Y-52928571D01*
X33990000Y-52928571D01*
X33847142Y-52857142D01*
X33704285Y-52714285D01*
X33632857Y-52428571D01*
X33632857Y-51928571D01*
X33704285Y-51642857D01*
X33847142Y-51500000D01*
X33990000Y-51428571D01*
X35275714Y-51428571D02*
X35275714Y-52642857D01*
X35347142Y-52785714D01*
X35418571Y-52857142D01*
X35561428Y-52928571D01*
X35847142Y-52928571D01*
X35990000Y-52857142D01*
X36061428Y-52785714D01*
X36132857Y-52642857D01*
X36132857Y-51428571D01*
X36632857Y-51428571D02*
X37490000Y-51428571D01*
X37061428Y-52928571D02*
X37061428Y-51428571D01*
D12*
X43114464Y-37578571D02*
X42614464Y-37757142D01*
X43114464Y-37935714D01*
X43364464Y-38364285D02*
X43364464Y-38435714D01*
X43328750Y-38507142D01*
X43293035Y-38542857D01*
X43221607Y-38578571D01*
X43078750Y-38614285D01*
X42900178Y-38614285D01*
X42757321Y-38578571D01*
X42685892Y-38542857D01*
X42650178Y-38507142D01*
X42614464Y-38435714D01*
X42614464Y-38364285D01*
X42650178Y-38292857D01*
X42685892Y-38257142D01*
X42757321Y-38221428D01*
X42900178Y-38185714D01*
X43078750Y-38185714D01*
X43221607Y-38221428D01*
X43293035Y-38257142D01*
X43328750Y-38292857D01*
X43364464Y-38364285D01*
X42685892Y-38935714D02*
X42650178Y-38971428D01*
X42614464Y-38935714D01*
X42650178Y-38900000D01*
X42685892Y-38935714D01*
X42614464Y-38935714D01*
X43293035Y-39257142D02*
X43328750Y-39292857D01*
X43364464Y-39364285D01*
X43364464Y-39542857D01*
X43328750Y-39614285D01*
X43293035Y-39650000D01*
X43221607Y-39685714D01*
X43150178Y-39685714D01*
X43043035Y-39650000D01*
X42614464Y-39221428D01*
X42614464Y-39685714D01*
X42085535Y-35578571D02*
X42121250Y-35614285D01*
X42156964Y-35685714D01*
X42156964Y-35864285D01*
X42121250Y-35935714D01*
X42085535Y-35971428D01*
X42014107Y-36007142D01*
X41942678Y-36007142D01*
X41835535Y-35971428D01*
X41406964Y-35542857D01*
X41406964Y-36007142D01*
X42156964Y-36471428D02*
X42156964Y-36542857D01*
X42121250Y-36614285D01*
X42085535Y-36650000D01*
X42014107Y-36685714D01*
X41871250Y-36721428D01*
X41692678Y-36721428D01*
X41549821Y-36685714D01*
X41478392Y-36650000D01*
X41442678Y-36614285D01*
X41406964Y-36542857D01*
X41406964Y-36471428D01*
X41442678Y-36400000D01*
X41478392Y-36364285D01*
X41549821Y-36328571D01*
X41692678Y-36292857D01*
X41871250Y-36292857D01*
X42014107Y-36328571D01*
X42085535Y-36364285D01*
X42121250Y-36400000D01*
X42156964Y-36471428D01*
X42085535Y-37007142D02*
X42121250Y-37042857D01*
X42156964Y-37114285D01*
X42156964Y-37292857D01*
X42121250Y-37364285D01*
X42085535Y-37400000D01*
X42014107Y-37435714D01*
X41942678Y-37435714D01*
X41835535Y-37400000D01*
X41406964Y-36971428D01*
X41406964Y-37435714D01*
X42085535Y-37721428D02*
X42121250Y-37757142D01*
X42156964Y-37828571D01*
X42156964Y-38007142D01*
X42121250Y-38078571D01*
X42085535Y-38114285D01*
X42014107Y-38150000D01*
X41942678Y-38150000D01*
X41835535Y-38114285D01*
X41406964Y-37685714D01*
X41406964Y-38150000D01*
X41478392Y-38471428D02*
X41442678Y-38507142D01*
X41406964Y-38471428D01*
X41442678Y-38435714D01*
X41478392Y-38471428D01*
X41406964Y-38471428D01*
X42156964Y-38971428D02*
X42156964Y-39042857D01*
X42121250Y-39114285D01*
X42085535Y-39150000D01*
X42014107Y-39185714D01*
X41871250Y-39221428D01*
X41692678Y-39221428D01*
X41549821Y-39185714D01*
X41478392Y-39150000D01*
X41442678Y-39114285D01*
X41406964Y-39042857D01*
X41406964Y-38971428D01*
X41442678Y-38900000D01*
X41478392Y-38864285D01*
X41549821Y-38828571D01*
X41692678Y-38792857D01*
X41871250Y-38792857D01*
X42014107Y-38828571D01*
X42085535Y-38864285D01*
X42121250Y-38900000D01*
X42156964Y-38971428D01*
X42156964Y-39900000D02*
X42156964Y-39542857D01*
X41799821Y-39507142D01*
X41835535Y-39542857D01*
X41871250Y-39614285D01*
X41871250Y-39792857D01*
X41835535Y-39864285D01*
X41799821Y-39900000D01*
X41728392Y-39935714D01*
X41549821Y-39935714D01*
X41478392Y-39900000D01*
X41442678Y-39864285D01*
X41406964Y-39792857D01*
X41406964Y-39614285D01*
X41442678Y-39542857D01*
X41478392Y-39507142D01*
X41478392Y-40257142D02*
X41442678Y-40292857D01*
X41406964Y-40257142D01*
X41442678Y-40221428D01*
X41478392Y-40257142D01*
X41406964Y-40257142D01*
X42085535Y-40578571D02*
X42121250Y-40614285D01*
X42156964Y-40685714D01*
X42156964Y-40864285D01*
X42121250Y-40935714D01*
X42085535Y-40971428D01*
X42014107Y-41007142D01*
X41942678Y-41007142D01*
X41835535Y-40971428D01*
X41406964Y-40542857D01*
X41406964Y-41007142D01*
X42156964Y-41471428D02*
X42156964Y-41542857D01*
X42121250Y-41614285D01*
X42085535Y-41650000D01*
X42014107Y-41685714D01*
X41871250Y-41721428D01*
X41692678Y-41721428D01*
X41549821Y-41685714D01*
X41478392Y-41650000D01*
X41442678Y-41614285D01*
X41406964Y-41542857D01*
X41406964Y-41471428D01*
X41442678Y-41400000D01*
X41478392Y-41364285D01*
X41549821Y-41328571D01*
X41692678Y-41292857D01*
X41871250Y-41292857D01*
X42014107Y-41328571D01*
X42085535Y-41364285D01*
X42121250Y-41400000D01*
X42156964Y-41471428D01*
D11*
X35906667Y-46380000D02*
X35763810Y-46308571D01*
X35549524Y-46308571D01*
X35335238Y-46380000D01*
X35192381Y-46522857D01*
X35120952Y-46665714D01*
X35049524Y-46951428D01*
X35049524Y-47165714D01*
X35120952Y-47451428D01*
X35192381Y-47594285D01*
X35335238Y-47737142D01*
X35549524Y-47808571D01*
X35692381Y-47808571D01*
X35906667Y-47737142D01*
X35978095Y-47665714D01*
X35978095Y-47165714D01*
X35692381Y-47165714D01*
D10*
%TO.C,RV1*%
X34724761Y-33912380D02*
X34391428Y-33436190D01*
X34153333Y-33912380D02*
X34153333Y-32912380D01*
X34534285Y-32912380D01*
X34629523Y-32960000D01*
X34677142Y-33007619D01*
X34724761Y-33102857D01*
X34724761Y-33245714D01*
X34677142Y-33340952D01*
X34629523Y-33388571D01*
X34534285Y-33436190D01*
X34153333Y-33436190D01*
X35010476Y-32912380D02*
X35343809Y-33912380D01*
X35677142Y-32912380D01*
X36534285Y-33912380D02*
X35962857Y-33912380D01*
X36248571Y-33912380D02*
X36248571Y-32912380D01*
X36153333Y-33055238D01*
X36058095Y-33150476D01*
X35962857Y-33198095D01*
%TO.C,RV2*%
X48419761Y-34162380D02*
X48086428Y-33686190D01*
X47848333Y-34162380D02*
X47848333Y-33162380D01*
X48229285Y-33162380D01*
X48324523Y-33210000D01*
X48372142Y-33257619D01*
X48419761Y-33352857D01*
X48419761Y-33495714D01*
X48372142Y-33590952D01*
X48324523Y-33638571D01*
X48229285Y-33686190D01*
X47848333Y-33686190D01*
X48705476Y-33162380D02*
X49038809Y-34162380D01*
X49372142Y-33162380D01*
X49657857Y-33257619D02*
X49705476Y-33210000D01*
X49800714Y-33162380D01*
X50038809Y-33162380D01*
X50134047Y-33210000D01*
X50181666Y-33257619D01*
X50229285Y-33352857D01*
X50229285Y-33448095D01*
X50181666Y-33590952D01*
X49610238Y-34162380D01*
X50229285Y-34162380D01*
%TO.C,RV3*%
X21579761Y-33732380D02*
X21246428Y-33256190D01*
X21008333Y-33732380D02*
X21008333Y-32732380D01*
X21389285Y-32732380D01*
X21484523Y-32780000D01*
X21532142Y-32827619D01*
X21579761Y-32922857D01*
X21579761Y-33065714D01*
X21532142Y-33160952D01*
X21484523Y-33208571D01*
X21389285Y-33256190D01*
X21008333Y-33256190D01*
X21865476Y-32732380D02*
X22198809Y-33732380D01*
X22532142Y-32732380D01*
X22770238Y-32732380D02*
X23389285Y-32732380D01*
X23055952Y-33113333D01*
X23198809Y-33113333D01*
X23294047Y-33160952D01*
X23341666Y-33208571D01*
X23389285Y-33303809D01*
X23389285Y-33541904D01*
X23341666Y-33637142D01*
X23294047Y-33684761D01*
X23198809Y-33732380D01*
X22913095Y-33732380D01*
X22817857Y-33684761D01*
X22770238Y-33637142D01*
D13*
%TO.C,RV1*%
X40480000Y-39970000D02*
X38990000Y-39970000D01*
X40480000Y-39970000D02*
X40480000Y-35250000D01*
X40480000Y-28380000D02*
X30740000Y-28380000D01*
X40480000Y-31440000D02*
X40480000Y-28380000D01*
X30740000Y-31440000D02*
X30740000Y-28380000D01*
X34820000Y-39970000D02*
X34290000Y-39970000D01*
X31920000Y-39970000D02*
X30740000Y-39970000D01*
X30730000Y-39970000D02*
X30730000Y-35250000D01*
X37270000Y-39970000D02*
X36440000Y-39970000D01*
%TO.C,RV2*%
X44135000Y-39970000D02*
X44135000Y-35250000D01*
X53885000Y-28380000D02*
X44145000Y-28380000D01*
X45325000Y-39970000D02*
X44145000Y-39970000D01*
X48225000Y-39970000D02*
X47695000Y-39970000D01*
X53885000Y-39970000D02*
X53885000Y-35250000D01*
X44145000Y-31440000D02*
X44145000Y-28380000D01*
X53885000Y-39970000D02*
X52395000Y-39970000D01*
X50675000Y-39970000D02*
X49845000Y-39970000D01*
X53885000Y-31440000D02*
X53885000Y-28380000D01*
%TO.C,RV3*%
X17295000Y-39970000D02*
X17295000Y-35250000D01*
X27045000Y-31440000D02*
X27045000Y-28380000D01*
X27045000Y-28380000D02*
X17305000Y-28380000D01*
X27045000Y-39970000D02*
X27045000Y-35250000D01*
X18485000Y-39970000D02*
X17305000Y-39970000D01*
X21385000Y-39970000D02*
X20855000Y-39970000D01*
X23835000Y-39970000D02*
X23005000Y-39970000D01*
X27045000Y-39970000D02*
X25555000Y-39970000D01*
X17305000Y-31440000D02*
X17305000Y-28380000D01*
%TD*%
M02*
