%TF.GenerationSoftware,KiCad,Pcbnew,(6.0.1)*%
%TF.CreationDate,2022-05-20T14:01:48-07:00*%
%TF.ProjectId,ratt-rounded,72617474-2d72-46f7-956e-6465642e6b69,rev?*%
%TF.SameCoordinates,Original*%
%TF.FileFunction,Profile,NP*%
%FSLAX46Y46*%
G04 Gerber Fmt 4.6, Leading zero omitted, Abs format (unit mm)*
G04 Created by KiCad (PCBNEW (6.0.1)) date 2022-05-20 14:01:48*
%MOMM*%
%LPD*%
G01*
G04 APERTURE LIST*
%TA.AperFunction,Profile*%
%ADD10C,0.100000*%
%TD*%
G04 APERTURE END LIST*
D10*
X50900000Y-43701666D02*
G75*
G03*
X53901666Y-40700000I-1J3001667D01*
G01*
X44550000Y-43695013D02*
X50900000Y-43701666D01*
X42110000Y-53630137D02*
X29400000Y-53630137D01*
X27904987Y-44700000D02*
X27899867Y-52130000D01*
X30890000Y-24410000D02*
G75*
G03*
X27890000Y-24410000I-1500000J0D01*
G01*
X53901666Y-40700000D02*
X53880000Y-35350000D01*
X42110000Y-53630137D02*
G75*
G03*
X43560137Y-52180000I1J1450136D01*
G01*
X43560137Y-52180000D02*
X43545013Y-44700000D01*
X27904987Y-44700000D02*
G75*
G03*
X26900000Y-43695013I-1004987J0D01*
G01*
X53901666Y-27400000D02*
G75*
G03*
X50900000Y-24398334I-3001667J-1D01*
G01*
X50900000Y-24398334D02*
X43600133Y-24410000D01*
X44550000Y-43695013D02*
G75*
G03*
X43545013Y-44700000I0J-1004987D01*
G01*
X20300000Y-24398334D02*
G75*
G03*
X17298334Y-27400000I1J-3001667D01*
G01*
X27899867Y-52130000D02*
G75*
G03*
X29400000Y-53630133I1500134J1D01*
G01*
X27890000Y-24410000D02*
X20300000Y-24398334D01*
X20300000Y-43700000D02*
X26900000Y-43695013D01*
X53880000Y-31350000D02*
X53901666Y-27400000D01*
X40599867Y-24430000D02*
X30890000Y-24410000D01*
X53880000Y-35350000D02*
G75*
G03*
X53880000Y-31350000I0J2000000D01*
G01*
X17310000Y-35360099D02*
X17300000Y-40700000D01*
X17300000Y-40700000D02*
G75*
G03*
X20300000Y-43700000I3000001J1D01*
G01*
X43600132Y-24410000D02*
G75*
G03*
X40599867Y-24430000I-1500199J0D01*
G01*
X17310000Y-31359901D02*
G75*
G03*
X17310000Y-35360099I0J-2000099D01*
G01*
X17310000Y-31359901D02*
X17298334Y-27400000D01*
M02*
