%TF.GenerationSoftware,KiCad,Pcbnew,(6.0.1)*%
%TF.CreationDate,2022-05-20T14:02:09-07:00*%
%TF.ProjectId,ratt-rounded,72617474-2d72-46f7-956e-6465642e6b69,rev?*%
%TF.SameCoordinates,Original*%
%TF.FileFunction,Legend,Bot*%
%TF.FilePolarity,Positive*%
%FSLAX46Y46*%
G04 Gerber Fmt 4.6, Leading zero omitted, Abs format (unit mm)*
G04 Created by KiCad (PCBNEW (6.0.1)) date 2022-05-20 14:02:09*
%MOMM*%
%LPD*%
G01*
G04 APERTURE LIST*
%ADD10C,0.150000*%
%ADD11C,0.120000*%
G04 APERTURE END LIST*
D10*
X45371421Y-31408579D02*
G75*
G03*
X45371421Y-31408579I-141421J0D01*
G01*
X32011421Y-47428579D02*
G75*
G03*
X32011421Y-47428579I-141421J0D01*
G01*
X37041421Y-26160000D02*
G75*
G03*
X37041421Y-26160000I-141421J0D01*
G01*
X39791421Y-43888579D02*
G75*
G03*
X39791421Y-43888579I-141421J0D01*
G01*
%TO.C,REF2*%
X32147619Y-21702380D02*
X32480952Y-21226190D01*
X32719047Y-21702380D02*
X32719047Y-20702380D01*
X32338095Y-20702380D01*
X32242857Y-20750000D01*
X32195238Y-20797619D01*
X32147619Y-20892857D01*
X32147619Y-21035714D01*
X32195238Y-21130952D01*
X32242857Y-21178571D01*
X32338095Y-21226190D01*
X32719047Y-21226190D01*
X31719047Y-21178571D02*
X31385714Y-21178571D01*
X31242857Y-21702380D02*
X31719047Y-21702380D01*
X31719047Y-20702380D01*
X31242857Y-20702380D01*
X30480952Y-21178571D02*
X30814285Y-21178571D01*
X30814285Y-21702380D02*
X30814285Y-20702380D01*
X30338095Y-20702380D01*
X30004761Y-20797619D02*
X29957142Y-20750000D01*
X29861904Y-20702380D01*
X29623809Y-20702380D01*
X29528571Y-20750000D01*
X29480952Y-20797619D01*
X29433333Y-20892857D01*
X29433333Y-20988095D01*
X29480952Y-21130952D01*
X30052380Y-21702380D01*
X29433333Y-21702380D01*
%TO.C,U1*%
X36671904Y-27522380D02*
X36671904Y-28331904D01*
X36624285Y-28427142D01*
X36576666Y-28474761D01*
X36481428Y-28522380D01*
X36290952Y-28522380D01*
X36195714Y-28474761D01*
X36148095Y-28427142D01*
X36100476Y-28331904D01*
X36100476Y-27522380D01*
X35100476Y-28522380D02*
X35671904Y-28522380D01*
X35386190Y-28522380D02*
X35386190Y-27522380D01*
X35481428Y-27665238D01*
X35576666Y-27760476D01*
X35671904Y-27808095D01*
%TO.C,R5*%
X46144666Y-39602380D02*
X46478000Y-39126190D01*
X46716095Y-39602380D02*
X46716095Y-38602380D01*
X46335142Y-38602380D01*
X46239904Y-38650000D01*
X46192285Y-38697619D01*
X46144666Y-38792857D01*
X46144666Y-38935714D01*
X46192285Y-39030952D01*
X46239904Y-39078571D01*
X46335142Y-39126190D01*
X46716095Y-39126190D01*
X45239904Y-38602380D02*
X45716095Y-38602380D01*
X45763714Y-39078571D01*
X45716095Y-39030952D01*
X45620857Y-38983333D01*
X45382761Y-38983333D01*
X45287523Y-39030952D01*
X45239904Y-39078571D01*
X45192285Y-39173809D01*
X45192285Y-39411904D01*
X45239904Y-39507142D01*
X45287523Y-39554761D01*
X45382761Y-39602380D01*
X45620857Y-39602380D01*
X45716095Y-39554761D01*
X45763714Y-39507142D01*
%TO.C,R6*%
X25776666Y-31482380D02*
X26110000Y-31006190D01*
X26348095Y-31482380D02*
X26348095Y-30482380D01*
X25967142Y-30482380D01*
X25871904Y-30530000D01*
X25824285Y-30577619D01*
X25776666Y-30672857D01*
X25776666Y-30815714D01*
X25824285Y-30910952D01*
X25871904Y-30958571D01*
X25967142Y-31006190D01*
X26348095Y-31006190D01*
X24919523Y-30482380D02*
X25110000Y-30482380D01*
X25205238Y-30530000D01*
X25252857Y-30577619D01*
X25348095Y-30720476D01*
X25395714Y-30910952D01*
X25395714Y-31291904D01*
X25348095Y-31387142D01*
X25300476Y-31434761D01*
X25205238Y-31482380D01*
X25014761Y-31482380D01*
X24919523Y-31434761D01*
X24871904Y-31387142D01*
X24824285Y-31291904D01*
X24824285Y-31053809D01*
X24871904Y-30958571D01*
X24919523Y-30910952D01*
X25014761Y-30863333D01*
X25205238Y-30863333D01*
X25300476Y-30910952D01*
X25348095Y-30958571D01*
X25395714Y-31053809D01*
%TO.C,C7*%
X38864666Y-31957142D02*
X38912285Y-32004761D01*
X39055142Y-32052380D01*
X39150380Y-32052380D01*
X39293238Y-32004761D01*
X39388476Y-31909523D01*
X39436095Y-31814285D01*
X39483714Y-31623809D01*
X39483714Y-31480952D01*
X39436095Y-31290476D01*
X39388476Y-31195238D01*
X39293238Y-31100000D01*
X39150380Y-31052380D01*
X39055142Y-31052380D01*
X38912285Y-31100000D01*
X38864666Y-31147619D01*
X38531333Y-31052380D02*
X37864666Y-31052380D01*
X38293238Y-32052380D01*
%TO.C,C2*%
X43535142Y-36813333D02*
X43582761Y-36765714D01*
X43630380Y-36622857D01*
X43630380Y-36527619D01*
X43582761Y-36384761D01*
X43487523Y-36289523D01*
X43392285Y-36241904D01*
X43201809Y-36194285D01*
X43058952Y-36194285D01*
X42868476Y-36241904D01*
X42773238Y-36289523D01*
X42678000Y-36384761D01*
X42630380Y-36527619D01*
X42630380Y-36622857D01*
X42678000Y-36765714D01*
X42725619Y-36813333D01*
X42725619Y-37194285D02*
X42678000Y-37241904D01*
X42630380Y-37337142D01*
X42630380Y-37575238D01*
X42678000Y-37670476D01*
X42725619Y-37718095D01*
X42820857Y-37765714D01*
X42916095Y-37765714D01*
X43058952Y-37718095D01*
X43630380Y-37146666D01*
X43630380Y-37765714D01*
%TO.C,R9*%
X46866666Y-28732380D02*
X47200000Y-28256190D01*
X47438095Y-28732380D02*
X47438095Y-27732380D01*
X47057142Y-27732380D01*
X46961904Y-27780000D01*
X46914285Y-27827619D01*
X46866666Y-27922857D01*
X46866666Y-28065714D01*
X46914285Y-28160952D01*
X46961904Y-28208571D01*
X47057142Y-28256190D01*
X47438095Y-28256190D01*
X46390476Y-28732380D02*
X46200000Y-28732380D01*
X46104761Y-28684761D01*
X46057142Y-28637142D01*
X45961904Y-28494285D01*
X45914285Y-28303809D01*
X45914285Y-27922857D01*
X45961904Y-27827619D01*
X46009523Y-27780000D01*
X46104761Y-27732380D01*
X46295238Y-27732380D01*
X46390476Y-27780000D01*
X46438095Y-27827619D01*
X46485714Y-27922857D01*
X46485714Y-28160952D01*
X46438095Y-28256190D01*
X46390476Y-28303809D01*
X46295238Y-28351428D01*
X46104761Y-28351428D01*
X46009523Y-28303809D01*
X45961904Y-28256190D01*
X45914285Y-28160952D01*
%TO.C,R7*%
X23206666Y-37284380D02*
X23540000Y-36808190D01*
X23778095Y-37284380D02*
X23778095Y-36284380D01*
X23397142Y-36284380D01*
X23301904Y-36332000D01*
X23254285Y-36379619D01*
X23206666Y-36474857D01*
X23206666Y-36617714D01*
X23254285Y-36712952D01*
X23301904Y-36760571D01*
X23397142Y-36808190D01*
X23778095Y-36808190D01*
X22873333Y-36284380D02*
X22206666Y-36284380D01*
X22635238Y-37284380D01*
%TO.C,R12*%
X50990857Y-34912380D02*
X51324190Y-34436190D01*
X51562285Y-34912380D02*
X51562285Y-33912380D01*
X51181333Y-33912380D01*
X51086095Y-33960000D01*
X51038476Y-34007619D01*
X50990857Y-34102857D01*
X50990857Y-34245714D01*
X51038476Y-34340952D01*
X51086095Y-34388571D01*
X51181333Y-34436190D01*
X51562285Y-34436190D01*
X50038476Y-34912380D02*
X50609904Y-34912380D01*
X50324190Y-34912380D02*
X50324190Y-33912380D01*
X50419428Y-34055238D01*
X50514666Y-34150476D01*
X50609904Y-34198095D01*
X49657523Y-34007619D02*
X49609904Y-33960000D01*
X49514666Y-33912380D01*
X49276571Y-33912380D01*
X49181333Y-33960000D01*
X49133714Y-34007619D01*
X49086095Y-34102857D01*
X49086095Y-34198095D01*
X49133714Y-34340952D01*
X49705142Y-34912380D01*
X49086095Y-34912380D01*
%TO.C,R8*%
X42438666Y-43002380D02*
X42772000Y-42526190D01*
X43010095Y-43002380D02*
X43010095Y-42002380D01*
X42629142Y-42002380D01*
X42533904Y-42050000D01*
X42486285Y-42097619D01*
X42438666Y-42192857D01*
X42438666Y-42335714D01*
X42486285Y-42430952D01*
X42533904Y-42478571D01*
X42629142Y-42526190D01*
X43010095Y-42526190D01*
X41867238Y-42430952D02*
X41962476Y-42383333D01*
X42010095Y-42335714D01*
X42057714Y-42240476D01*
X42057714Y-42192857D01*
X42010095Y-42097619D01*
X41962476Y-42050000D01*
X41867238Y-42002380D01*
X41676761Y-42002380D01*
X41581523Y-42050000D01*
X41533904Y-42097619D01*
X41486285Y-42192857D01*
X41486285Y-42240476D01*
X41533904Y-42335714D01*
X41581523Y-42383333D01*
X41676761Y-42430952D01*
X41867238Y-42430952D01*
X41962476Y-42478571D01*
X42010095Y-42526190D01*
X42057714Y-42621428D01*
X42057714Y-42811904D01*
X42010095Y-42907142D01*
X41962476Y-42954761D01*
X41867238Y-43002380D01*
X41676761Y-43002380D01*
X41581523Y-42954761D01*
X41533904Y-42907142D01*
X41486285Y-42811904D01*
X41486285Y-42621428D01*
X41533904Y-42526190D01*
X41581523Y-42478571D01*
X41676761Y-42430952D01*
%TO.C,C3*%
X32834666Y-31997142D02*
X32882285Y-32044761D01*
X33025142Y-32092380D01*
X33120380Y-32092380D01*
X33263238Y-32044761D01*
X33358476Y-31949523D01*
X33406095Y-31854285D01*
X33453714Y-31663809D01*
X33453714Y-31520952D01*
X33406095Y-31330476D01*
X33358476Y-31235238D01*
X33263238Y-31140000D01*
X33120380Y-31092380D01*
X33025142Y-31092380D01*
X32882285Y-31140000D01*
X32834666Y-31187619D01*
X32501333Y-31092380D02*
X31882285Y-31092380D01*
X32215619Y-31473333D01*
X32072761Y-31473333D01*
X31977523Y-31520952D01*
X31929904Y-31568571D01*
X31882285Y-31663809D01*
X31882285Y-31901904D01*
X31929904Y-31997142D01*
X31977523Y-32044761D01*
X32072761Y-32092380D01*
X32358476Y-32092380D01*
X32453714Y-32044761D01*
X32501333Y-31997142D01*
%TO.C,R4*%
X30244666Y-40632380D02*
X30578000Y-40156190D01*
X30816095Y-40632380D02*
X30816095Y-39632380D01*
X30435142Y-39632380D01*
X30339904Y-39680000D01*
X30292285Y-39727619D01*
X30244666Y-39822857D01*
X30244666Y-39965714D01*
X30292285Y-40060952D01*
X30339904Y-40108571D01*
X30435142Y-40156190D01*
X30816095Y-40156190D01*
X29387523Y-39965714D02*
X29387523Y-40632380D01*
X29625619Y-39584761D02*
X29863714Y-40299047D01*
X29244666Y-40299047D01*
%TO.C,C8*%
X37884666Y-38117142D02*
X37932285Y-38164761D01*
X38075142Y-38212380D01*
X38170380Y-38212380D01*
X38313238Y-38164761D01*
X38408476Y-38069523D01*
X38456095Y-37974285D01*
X38503714Y-37783809D01*
X38503714Y-37640952D01*
X38456095Y-37450476D01*
X38408476Y-37355238D01*
X38313238Y-37260000D01*
X38170380Y-37212380D01*
X38075142Y-37212380D01*
X37932285Y-37260000D01*
X37884666Y-37307619D01*
X37313238Y-37640952D02*
X37408476Y-37593333D01*
X37456095Y-37545714D01*
X37503714Y-37450476D01*
X37503714Y-37402857D01*
X37456095Y-37307619D01*
X37408476Y-37260000D01*
X37313238Y-37212380D01*
X37122761Y-37212380D01*
X37027523Y-37260000D01*
X36979904Y-37307619D01*
X36932285Y-37402857D01*
X36932285Y-37450476D01*
X36979904Y-37545714D01*
X37027523Y-37593333D01*
X37122761Y-37640952D01*
X37313238Y-37640952D01*
X37408476Y-37688571D01*
X37456095Y-37736190D01*
X37503714Y-37831428D01*
X37503714Y-38021904D01*
X37456095Y-38117142D01*
X37408476Y-38164761D01*
X37313238Y-38212380D01*
X37122761Y-38212380D01*
X37027523Y-38164761D01*
X36979904Y-38117142D01*
X36932285Y-38021904D01*
X36932285Y-37831428D01*
X36979904Y-37736190D01*
X37027523Y-37688571D01*
X37122761Y-37640952D01*
%TO.C,C5*%
X27284666Y-40557142D02*
X27332285Y-40604761D01*
X27475142Y-40652380D01*
X27570380Y-40652380D01*
X27713238Y-40604761D01*
X27808476Y-40509523D01*
X27856095Y-40414285D01*
X27903714Y-40223809D01*
X27903714Y-40080952D01*
X27856095Y-39890476D01*
X27808476Y-39795238D01*
X27713238Y-39700000D01*
X27570380Y-39652380D01*
X27475142Y-39652380D01*
X27332285Y-39700000D01*
X27284666Y-39747619D01*
X26379904Y-39652380D02*
X26856095Y-39652380D01*
X26903714Y-40128571D01*
X26856095Y-40080952D01*
X26760857Y-40033333D01*
X26522761Y-40033333D01*
X26427523Y-40080952D01*
X26379904Y-40128571D01*
X26332285Y-40223809D01*
X26332285Y-40461904D01*
X26379904Y-40557142D01*
X26427523Y-40604761D01*
X26522761Y-40652380D01*
X26760857Y-40652380D01*
X26856095Y-40604761D01*
X26903714Y-40557142D01*
%TO.C,R3*%
X33226666Y-36974380D02*
X33560000Y-36498190D01*
X33798095Y-36974380D02*
X33798095Y-35974380D01*
X33417142Y-35974380D01*
X33321904Y-36022000D01*
X33274285Y-36069619D01*
X33226666Y-36164857D01*
X33226666Y-36307714D01*
X33274285Y-36402952D01*
X33321904Y-36450571D01*
X33417142Y-36498190D01*
X33798095Y-36498190D01*
X32893333Y-35974380D02*
X32274285Y-35974380D01*
X32607619Y-36355333D01*
X32464761Y-36355333D01*
X32369523Y-36402952D01*
X32321904Y-36450571D01*
X32274285Y-36545809D01*
X32274285Y-36783904D01*
X32321904Y-36879142D01*
X32369523Y-36926761D01*
X32464761Y-36974380D01*
X32750476Y-36974380D01*
X32845714Y-36926761D01*
X32893333Y-36879142D01*
%TO.C,R1*%
X50054666Y-31282380D02*
X50388000Y-30806190D01*
X50626095Y-31282380D02*
X50626095Y-30282380D01*
X50245142Y-30282380D01*
X50149904Y-30330000D01*
X50102285Y-30377619D01*
X50054666Y-30472857D01*
X50054666Y-30615714D01*
X50102285Y-30710952D01*
X50149904Y-30758571D01*
X50245142Y-30806190D01*
X50626095Y-30806190D01*
X49102285Y-31282380D02*
X49673714Y-31282380D01*
X49388000Y-31282380D02*
X49388000Y-30282380D01*
X49483238Y-30425238D01*
X49578476Y-30520476D01*
X49673714Y-30568095D01*
%TO.C,J2*%
X47833333Y-47182380D02*
X47833333Y-47896666D01*
X47880952Y-48039523D01*
X47976190Y-48134761D01*
X48119047Y-48182380D01*
X48214285Y-48182380D01*
X47404761Y-47277619D02*
X47357142Y-47230000D01*
X47261904Y-47182380D01*
X47023809Y-47182380D01*
X46928571Y-47230000D01*
X46880952Y-47277619D01*
X46833333Y-47372857D01*
X46833333Y-47468095D01*
X46880952Y-47610952D01*
X47452380Y-48182380D01*
X46833333Y-48182380D01*
%TO.C,Q1*%
X29453838Y-27487019D02*
X29549076Y-27439400D01*
X29644314Y-27344161D01*
X29787171Y-27201304D01*
X29882409Y-27153685D01*
X29977647Y-27153685D01*
X29930028Y-27391780D02*
X30025266Y-27344161D01*
X30120504Y-27248923D01*
X30168123Y-27058447D01*
X30168123Y-26725114D01*
X30120504Y-26534638D01*
X30025266Y-26439400D01*
X29930028Y-26391780D01*
X29739552Y-26391780D01*
X29644314Y-26439400D01*
X29549076Y-26534638D01*
X29501457Y-26725114D01*
X29501457Y-27058447D01*
X29549076Y-27248923D01*
X29644314Y-27344161D01*
X29739552Y-27391780D01*
X29930028Y-27391780D01*
X28549076Y-27391780D02*
X29120504Y-27391780D01*
X28834790Y-27391780D02*
X28834790Y-26391780D01*
X28930028Y-26534638D01*
X29025266Y-26629876D01*
X29120504Y-26677495D01*
%TO.C,R10*%
X52012857Y-26954380D02*
X52346190Y-26478190D01*
X52584285Y-26954380D02*
X52584285Y-25954380D01*
X52203333Y-25954380D01*
X52108095Y-26002000D01*
X52060476Y-26049619D01*
X52012857Y-26144857D01*
X52012857Y-26287714D01*
X52060476Y-26382952D01*
X52108095Y-26430571D01*
X52203333Y-26478190D01*
X52584285Y-26478190D01*
X51060476Y-26954380D02*
X51631904Y-26954380D01*
X51346190Y-26954380D02*
X51346190Y-25954380D01*
X51441428Y-26097238D01*
X51536666Y-26192476D01*
X51631904Y-26240095D01*
X50441428Y-25954380D02*
X50346190Y-25954380D01*
X50250952Y-26002000D01*
X50203333Y-26049619D01*
X50155714Y-26144857D01*
X50108095Y-26335333D01*
X50108095Y-26573428D01*
X50155714Y-26763904D01*
X50203333Y-26859142D01*
X50250952Y-26906761D01*
X50346190Y-26954380D01*
X50441428Y-26954380D01*
X50536666Y-26906761D01*
X50584285Y-26859142D01*
X50631904Y-26763904D01*
X50679523Y-26573428D01*
X50679523Y-26335333D01*
X50631904Y-26144857D01*
X50584285Y-26049619D01*
X50536666Y-26002000D01*
X50441428Y-25954380D01*
%TO.C,D2*%
X38853095Y-49750380D02*
X38853095Y-48750380D01*
X38615000Y-48750380D01*
X38472142Y-48798000D01*
X38376904Y-48893238D01*
X38329285Y-48988476D01*
X38281666Y-49178952D01*
X38281666Y-49321809D01*
X38329285Y-49512285D01*
X38376904Y-49607523D01*
X38472142Y-49702761D01*
X38615000Y-49750380D01*
X38853095Y-49750380D01*
X37900714Y-48845619D02*
X37853095Y-48798000D01*
X37757857Y-48750380D01*
X37519761Y-48750380D01*
X37424523Y-48798000D01*
X37376904Y-48845619D01*
X37329285Y-48940857D01*
X37329285Y-49036095D01*
X37376904Y-49178952D01*
X37948333Y-49750380D01*
X37329285Y-49750380D01*
%TO.C,C6*%
X40564666Y-27737142D02*
X40612285Y-27784761D01*
X40755142Y-27832380D01*
X40850380Y-27832380D01*
X40993238Y-27784761D01*
X41088476Y-27689523D01*
X41136095Y-27594285D01*
X41183714Y-27403809D01*
X41183714Y-27260952D01*
X41136095Y-27070476D01*
X41088476Y-26975238D01*
X40993238Y-26880000D01*
X40850380Y-26832380D01*
X40755142Y-26832380D01*
X40612285Y-26880000D01*
X40564666Y-26927619D01*
X39707523Y-26832380D02*
X39898000Y-26832380D01*
X39993238Y-26880000D01*
X40040857Y-26927619D01*
X40136095Y-27070476D01*
X40183714Y-27260952D01*
X40183714Y-27641904D01*
X40136095Y-27737142D01*
X40088476Y-27784761D01*
X39993238Y-27832380D01*
X39802761Y-27832380D01*
X39707523Y-27784761D01*
X39659904Y-27737142D01*
X39612285Y-27641904D01*
X39612285Y-27403809D01*
X39659904Y-27308571D01*
X39707523Y-27260952D01*
X39802761Y-27213333D01*
X39993238Y-27213333D01*
X40088476Y-27260952D01*
X40136095Y-27308571D01*
X40183714Y-27403809D01*
%TO.C,J1*%
X25383333Y-44982380D02*
X25383333Y-45696666D01*
X25430952Y-45839523D01*
X25526190Y-45934761D01*
X25669047Y-45982380D01*
X25764285Y-45982380D01*
X24383333Y-45982380D02*
X24954761Y-45982380D01*
X24669047Y-45982380D02*
X24669047Y-44982380D01*
X24764285Y-45125238D01*
X24859523Y-45220476D01*
X24954761Y-45268095D01*
%TO.C,R2*%
X42566666Y-31892380D02*
X42900000Y-31416190D01*
X43138095Y-31892380D02*
X43138095Y-30892380D01*
X42757142Y-30892380D01*
X42661904Y-30940000D01*
X42614285Y-30987619D01*
X42566666Y-31082857D01*
X42566666Y-31225714D01*
X42614285Y-31320952D01*
X42661904Y-31368571D01*
X42757142Y-31416190D01*
X43138095Y-31416190D01*
X42185714Y-30987619D02*
X42138095Y-30940000D01*
X42042857Y-30892380D01*
X41804761Y-30892380D01*
X41709523Y-30940000D01*
X41661904Y-30987619D01*
X41614285Y-31082857D01*
X41614285Y-31178095D01*
X41661904Y-31320952D01*
X42233333Y-31892380D01*
X41614285Y-31892380D01*
%TO.C,C11*%
X20812857Y-28799142D02*
X20860476Y-28846761D01*
X21003333Y-28894380D01*
X21098571Y-28894380D01*
X21241428Y-28846761D01*
X21336666Y-28751523D01*
X21384285Y-28656285D01*
X21431904Y-28465809D01*
X21431904Y-28322952D01*
X21384285Y-28132476D01*
X21336666Y-28037238D01*
X21241428Y-27942000D01*
X21098571Y-27894380D01*
X21003333Y-27894380D01*
X20860476Y-27942000D01*
X20812857Y-27989619D01*
X19860476Y-28894380D02*
X20431904Y-28894380D01*
X20146190Y-28894380D02*
X20146190Y-27894380D01*
X20241428Y-28037238D01*
X20336666Y-28132476D01*
X20431904Y-28180095D01*
X18908095Y-28894380D02*
X19479523Y-28894380D01*
X19193809Y-28894380D02*
X19193809Y-27894380D01*
X19289047Y-28037238D01*
X19384285Y-28132476D01*
X19479523Y-28180095D01*
%TO.C,D3*%
X47423095Y-30532380D02*
X47423095Y-29532380D01*
X47185000Y-29532380D01*
X47042142Y-29580000D01*
X46946904Y-29675238D01*
X46899285Y-29770476D01*
X46851666Y-29960952D01*
X46851666Y-30103809D01*
X46899285Y-30294285D01*
X46946904Y-30389523D01*
X47042142Y-30484761D01*
X47185000Y-30532380D01*
X47423095Y-30532380D01*
X46518333Y-29532380D02*
X45899285Y-29532380D01*
X46232619Y-29913333D01*
X46089761Y-29913333D01*
X45994523Y-29960952D01*
X45946904Y-30008571D01*
X45899285Y-30103809D01*
X45899285Y-30341904D01*
X45946904Y-30437142D01*
X45994523Y-30484761D01*
X46089761Y-30532380D01*
X46375476Y-30532380D01*
X46470714Y-30484761D01*
X46518333Y-30437142D01*
%TO.C,REF1*%
X39747619Y-21402380D02*
X40080952Y-20926190D01*
X40319047Y-21402380D02*
X40319047Y-20402380D01*
X39938095Y-20402380D01*
X39842857Y-20450000D01*
X39795238Y-20497619D01*
X39747619Y-20592857D01*
X39747619Y-20735714D01*
X39795238Y-20830952D01*
X39842857Y-20878571D01*
X39938095Y-20926190D01*
X40319047Y-20926190D01*
X39319047Y-20878571D02*
X38985714Y-20878571D01*
X38842857Y-21402380D02*
X39319047Y-21402380D01*
X39319047Y-20402380D01*
X38842857Y-20402380D01*
X38080952Y-20878571D02*
X38414285Y-20878571D01*
X38414285Y-21402380D02*
X38414285Y-20402380D01*
X37938095Y-20402380D01*
X37033333Y-21402380D02*
X37604761Y-21402380D01*
X37319047Y-21402380D02*
X37319047Y-20402380D01*
X37414285Y-20545238D01*
X37509523Y-20640476D01*
X37604761Y-20688095D01*
%TO.C,R11*%
X20292857Y-35524380D02*
X20626190Y-35048190D01*
X20864285Y-35524380D02*
X20864285Y-34524380D01*
X20483333Y-34524380D01*
X20388095Y-34572000D01*
X20340476Y-34619619D01*
X20292857Y-34714857D01*
X20292857Y-34857714D01*
X20340476Y-34952952D01*
X20388095Y-35000571D01*
X20483333Y-35048190D01*
X20864285Y-35048190D01*
X19340476Y-35524380D02*
X19911904Y-35524380D01*
X19626190Y-35524380D02*
X19626190Y-34524380D01*
X19721428Y-34667238D01*
X19816666Y-34762476D01*
X19911904Y-34810095D01*
X18388095Y-35524380D02*
X18959523Y-35524380D01*
X18673809Y-35524380D02*
X18673809Y-34524380D01*
X18769047Y-34667238D01*
X18864285Y-34762476D01*
X18959523Y-34810095D01*
%TO.C,C10*%
X53239142Y-37637142D02*
X53286761Y-37589523D01*
X53334380Y-37446666D01*
X53334380Y-37351428D01*
X53286761Y-37208571D01*
X53191523Y-37113333D01*
X53096285Y-37065714D01*
X52905809Y-37018095D01*
X52762952Y-37018095D01*
X52572476Y-37065714D01*
X52477238Y-37113333D01*
X52382000Y-37208571D01*
X52334380Y-37351428D01*
X52334380Y-37446666D01*
X52382000Y-37589523D01*
X52429619Y-37637142D01*
X53334380Y-38589523D02*
X53334380Y-38018095D01*
X53334380Y-38303809D02*
X52334380Y-38303809D01*
X52477238Y-38208571D01*
X52572476Y-38113333D01*
X52620095Y-38018095D01*
X52334380Y-39208571D02*
X52334380Y-39303809D01*
X52382000Y-39399047D01*
X52429619Y-39446666D01*
X52524857Y-39494285D01*
X52715333Y-39541904D01*
X52953428Y-39541904D01*
X53143904Y-39494285D01*
X53239142Y-39446666D01*
X53286761Y-39399047D01*
X53334380Y-39303809D01*
X53334380Y-39208571D01*
X53286761Y-39113333D01*
X53239142Y-39065714D01*
X53143904Y-39018095D01*
X52953428Y-38970476D01*
X52715333Y-38970476D01*
X52524857Y-39018095D01*
X52429619Y-39065714D01*
X52382000Y-39113333D01*
X52334380Y-39208571D01*
%TO.C,C4*%
X23046666Y-32485142D02*
X23094285Y-32532761D01*
X23237142Y-32580380D01*
X23332380Y-32580380D01*
X23475238Y-32532761D01*
X23570476Y-32437523D01*
X23618095Y-32342285D01*
X23665714Y-32151809D01*
X23665714Y-32008952D01*
X23618095Y-31818476D01*
X23570476Y-31723238D01*
X23475238Y-31628000D01*
X23332380Y-31580380D01*
X23237142Y-31580380D01*
X23094285Y-31628000D01*
X23046666Y-31675619D01*
X22189523Y-31913714D02*
X22189523Y-32580380D01*
X22427619Y-31532761D02*
X22665714Y-32247047D01*
X22046666Y-32247047D01*
%TO.C,C9*%
X25667166Y-25879142D02*
X25714785Y-25926761D01*
X25857642Y-25974380D01*
X25952880Y-25974380D01*
X26095738Y-25926761D01*
X26190976Y-25831523D01*
X26238595Y-25736285D01*
X26286214Y-25545809D01*
X26286214Y-25402952D01*
X26238595Y-25212476D01*
X26190976Y-25117238D01*
X26095738Y-25022000D01*
X25952880Y-24974380D01*
X25857642Y-24974380D01*
X25714785Y-25022000D01*
X25667166Y-25069619D01*
X25190976Y-25974380D02*
X25000500Y-25974380D01*
X24905261Y-25926761D01*
X24857642Y-25879142D01*
X24762404Y-25736285D01*
X24714785Y-25545809D01*
X24714785Y-25164857D01*
X24762404Y-25069619D01*
X24810023Y-25022000D01*
X24905261Y-24974380D01*
X25095738Y-24974380D01*
X25190976Y-25022000D01*
X25238595Y-25069619D01*
X25286214Y-25164857D01*
X25286214Y-25402952D01*
X25238595Y-25498190D01*
X25190976Y-25545809D01*
X25095738Y-25593428D01*
X24905261Y-25593428D01*
X24810023Y-25545809D01*
X24762404Y-25498190D01*
X24714785Y-25402952D01*
%TO.C,C1*%
X46837166Y-35817142D02*
X46884785Y-35864761D01*
X47027642Y-35912380D01*
X47122880Y-35912380D01*
X47265738Y-35864761D01*
X47360976Y-35769523D01*
X47408595Y-35674285D01*
X47456214Y-35483809D01*
X47456214Y-35340952D01*
X47408595Y-35150476D01*
X47360976Y-35055238D01*
X47265738Y-34960000D01*
X47122880Y-34912380D01*
X47027642Y-34912380D01*
X46884785Y-34960000D01*
X46837166Y-35007619D01*
X45884785Y-35912380D02*
X46456214Y-35912380D01*
X46170500Y-35912380D02*
X46170500Y-34912380D01*
X46265738Y-35055238D01*
X46360976Y-35150476D01*
X46456214Y-35198095D01*
%TO.C,D1*%
X33926095Y-49722380D02*
X33926095Y-48722380D01*
X33688000Y-48722380D01*
X33545142Y-48770000D01*
X33449904Y-48865238D01*
X33402285Y-48960476D01*
X33354666Y-49150952D01*
X33354666Y-49293809D01*
X33402285Y-49484285D01*
X33449904Y-49579523D01*
X33545142Y-49674761D01*
X33688000Y-49722380D01*
X33926095Y-49722380D01*
X32402285Y-49722380D02*
X32973714Y-49722380D01*
X32688000Y-49722380D02*
X32688000Y-48722380D01*
X32783238Y-48865238D01*
X32878476Y-48960476D01*
X32973714Y-49008095D01*
D11*
%TO.C,REF2*%
X30730000Y-25560000D02*
X28070000Y-25560000D01*
X28070000Y-25500000D02*
X28070000Y-25560000D01*
X30730000Y-24230000D02*
X30730000Y-22900000D01*
X30730000Y-22900000D02*
X29400000Y-22900000D01*
X30730000Y-25500000D02*
X28070000Y-25500000D01*
X30730000Y-25500000D02*
X30730000Y-25560000D01*
%TO.C,U1*%
X35910000Y-25560000D02*
X33960000Y-25560000D01*
X35910000Y-30680000D02*
X33960000Y-30680000D01*
X35910000Y-25560000D02*
X39360000Y-25560000D01*
X35910000Y-30680000D02*
X37860000Y-30680000D01*
%TO.C,R5*%
X45700936Y-36765000D02*
X46155064Y-36765000D01*
X45700936Y-38235000D02*
X46155064Y-38235000D01*
%TO.C,R6*%
X24875000Y-28252936D02*
X24875000Y-28707064D01*
X26345000Y-28252936D02*
X26345000Y-28707064D01*
%TO.C,C7*%
X37683000Y-32698748D02*
X37683000Y-33221252D01*
X36213000Y-32698748D02*
X36213000Y-33221252D01*
%TO.C,C2*%
X40763000Y-36758748D02*
X40763000Y-37281252D01*
X42233000Y-36758748D02*
X42233000Y-37281252D01*
%TO.C,R9*%
X46572936Y-27215000D02*
X47027064Y-27215000D01*
X46572936Y-25745000D02*
X47027064Y-25745000D01*
%TO.C,R7*%
X23905000Y-34499064D02*
X23905000Y-34044936D01*
X22435000Y-34499064D02*
X22435000Y-34044936D01*
%TO.C,R12*%
X49755064Y-35275000D02*
X49300936Y-35275000D01*
X49755064Y-36745000D02*
X49300936Y-36745000D01*
%TO.C,R8*%
X42499064Y-40115000D02*
X42044936Y-40115000D01*
X42499064Y-41585000D02*
X42044936Y-41585000D01*
%TO.C,C3*%
X33723000Y-33181252D02*
X33723000Y-32658748D01*
X35193000Y-33181252D02*
X35193000Y-32658748D01*
%TO.C,R4*%
X30763000Y-37807064D02*
X30763000Y-37352936D01*
X29293000Y-37807064D02*
X29293000Y-37352936D01*
%TO.C,C8*%
X36839252Y-35175000D02*
X36316748Y-35175000D01*
X36839252Y-36645000D02*
X36316748Y-36645000D01*
%TO.C,C5*%
X26363000Y-37288748D02*
X26363000Y-37811252D01*
X27833000Y-37288748D02*
X27833000Y-37811252D01*
%TO.C,R3*%
X34777064Y-39037000D02*
X34322936Y-39037000D01*
X34777064Y-37567000D02*
X34322936Y-37567000D01*
%TO.C,R1*%
X50255064Y-33025000D02*
X49800936Y-33025000D01*
X50255064Y-31555000D02*
X49800936Y-31555000D01*
%TO.C,J2*%
X40770000Y-45830000D02*
X40770000Y-53510000D01*
X43430000Y-43230000D02*
X42100000Y-43230000D01*
X43430000Y-45830000D02*
X40770000Y-45830000D01*
X43430000Y-53510000D02*
X40770000Y-53510000D01*
X43430000Y-45830000D02*
X43430000Y-53510000D01*
X43430000Y-44560000D02*
X43430000Y-43230000D01*
%TO.C,Q1*%
X29358600Y-27779400D02*
X31033600Y-27779400D01*
X29358600Y-27779400D02*
X28708600Y-27779400D01*
X29358600Y-30899400D02*
X28708600Y-30899400D01*
X29358600Y-30899400D02*
X30008600Y-30899400D01*
%TO.C,R10*%
X50695000Y-28604936D02*
X50695000Y-29059064D01*
X52165000Y-28604936D02*
X52165000Y-29059064D01*
%TO.C,D2*%
X39175000Y-43118000D02*
X39175000Y-47418000D01*
X37175000Y-47418000D02*
X37175000Y-43118000D01*
X37175000Y-43118000D02*
X39175000Y-43118000D01*
%TO.C,C6*%
X42536748Y-28135000D02*
X43059252Y-28135000D01*
X42536748Y-26665000D02*
X43059252Y-26665000D01*
%TO.C,J1*%
X30730000Y-45830000D02*
X28070000Y-45830000D01*
X30730000Y-53510000D02*
X28070000Y-53510000D01*
X30730000Y-45830000D02*
X30730000Y-53510000D01*
X30730000Y-43230000D02*
X29400000Y-43230000D01*
X30730000Y-44560000D02*
X30730000Y-43230000D01*
X28070000Y-45830000D02*
X28070000Y-53510000D01*
%TO.C,R2*%
X42857064Y-30535000D02*
X42402936Y-30535000D01*
X42857064Y-29065000D02*
X42402936Y-29065000D01*
%TO.C,C11*%
X19655000Y-31103252D02*
X19655000Y-30580748D01*
X21125000Y-31103252D02*
X21125000Y-30580748D01*
%TO.C,D3*%
X44492000Y-28995000D02*
X48342000Y-28995000D01*
X44492000Y-30995000D02*
X48342000Y-30995000D01*
X44492000Y-30995000D02*
X44492000Y-28995000D01*
%TO.C,REF1*%
X43430000Y-24230000D02*
X43430000Y-22900000D01*
X43430000Y-22900000D02*
X42100000Y-22900000D01*
X40770000Y-25500000D02*
X40770000Y-25560000D01*
X43430000Y-25500000D02*
X43430000Y-25560000D01*
X43430000Y-25500000D02*
X40770000Y-25500000D01*
X43430000Y-25560000D02*
X40770000Y-25560000D01*
%TO.C,R11*%
X19935000Y-37194936D02*
X19935000Y-37649064D01*
X18465000Y-37194936D02*
X18465000Y-37649064D01*
%TO.C,C10*%
X50543252Y-37675000D02*
X50020748Y-37675000D01*
X50543252Y-39145000D02*
X50020748Y-39145000D01*
%TO.C,C4*%
X22115000Y-29939252D02*
X22115000Y-29416748D01*
X23585000Y-29939252D02*
X23585000Y-29416748D01*
%TO.C,C9*%
X22961752Y-25867000D02*
X22439248Y-25867000D01*
X22961752Y-27337000D02*
X22439248Y-27337000D01*
%TO.C,C1*%
X46355500Y-33361252D02*
X46355500Y-32838748D01*
X47825500Y-33361252D02*
X47825500Y-32838748D01*
%TO.C,D1*%
X34460000Y-48108000D02*
X32460000Y-48108000D01*
X34460000Y-43808000D02*
X34460000Y-48108000D01*
X32460000Y-48108000D02*
X32460000Y-43808000D01*
%TD*%
M02*
