%TF.GenerationSoftware,KiCad,Pcbnew,(6.0.1)*%
%TF.CreationDate,2022-07-11T12:53:36-07:00*%
%TF.ProjectId,ratt-rounded,72617474-2d72-46f7-956e-6465642e6b69,rev?*%
%TF.SameCoordinates,Original*%
%TF.FileFunction,Profile,NP*%
%FSLAX46Y46*%
G04 Gerber Fmt 4.6, Leading zero omitted, Abs format (unit mm)*
G04 Created by KiCad (PCBNEW (6.0.1)) date 2022-07-11 12:53:36*
%MOMM*%
%LPD*%
G01*
G04 APERTURE LIST*
%TA.AperFunction,Profile*%
%ADD10C,0.100000*%
%TD*%
G04 APERTURE END LIST*
D10*
X50910000Y-43521666D02*
G75*
G03*
X53911666Y-40520000I-1J3001667D01*
G01*
X44560000Y-43515013D02*
X50910000Y-43521666D01*
X42110000Y-53630137D02*
X29400000Y-53630137D01*
X27904987Y-44520000D02*
X27899867Y-52130000D01*
X42100100Y-22909967D02*
X29390000Y-22909967D01*
X53911666Y-40520000D02*
X53901666Y-27400000D01*
X42110000Y-53630137D02*
G75*
G03*
X43560137Y-52180000I1J1450136D01*
G01*
X43560137Y-52180000D02*
X43555013Y-44520000D01*
X27904987Y-44520000D02*
G75*
G03*
X26900000Y-43515013I-1004987J0D01*
G01*
X53901666Y-27400000D02*
G75*
G03*
X50900000Y-24398334I-3001667J-1D01*
G01*
X50900000Y-24398334D02*
X43600133Y-24410000D01*
X44560000Y-43515013D02*
G75*
G03*
X43555013Y-44520000I0J-1004987D01*
G01*
X20300000Y-24398334D02*
G75*
G03*
X17298334Y-27400000I1J-3001667D01*
G01*
X43600133Y-24410000D02*
G75*
G03*
X42100100Y-22909967I-1500031J2D01*
G01*
X27899867Y-52130000D02*
G75*
G03*
X29400000Y-53630133I1500134J1D01*
G01*
X27890000Y-24410000D02*
X20300000Y-24398334D01*
X29390000Y-22909967D02*
G75*
G03*
X27889967Y-24410000I-2J-1500031D01*
G01*
X20300000Y-43520000D02*
X26900000Y-43515013D01*
X17298334Y-27400000D02*
X17300000Y-40520000D01*
X17300000Y-40520000D02*
G75*
G03*
X20300000Y-43520000I3000001J1D01*
G01*
M02*
