%TF.GenerationSoftware,KiCad,Pcbnew,(6.0.1)*%
%TF.CreationDate,2022-07-11T12:53:36-07:00*%
%TF.ProjectId,ratt-rounded,72617474-2d72-46f7-956e-6465642e6b69,rev?*%
%TF.SameCoordinates,Original*%
%TF.FileFunction,Legend,Bot*%
%TF.FilePolarity,Positive*%
%FSLAX46Y46*%
G04 Gerber Fmt 4.6, Leading zero omitted, Abs format (unit mm)*
G04 Created by KiCad (PCBNEW (6.0.1)) date 2022-07-11 12:53:36*
%MOMM*%
%LPD*%
G01*
G04 APERTURE LIST*
%ADD10C,0.150000*%
%ADD11C,0.120000*%
G04 APERTURE END LIST*
D10*
%TO.C,U1*%
X36671904Y-27522380D02*
X36671904Y-28331904D01*
X36624285Y-28427142D01*
X36576666Y-28474761D01*
X36481428Y-28522380D01*
X36290952Y-28522380D01*
X36195714Y-28474761D01*
X36148095Y-28427142D01*
X36100476Y-28331904D01*
X36100476Y-27522380D01*
X35100476Y-28522380D02*
X35671904Y-28522380D01*
X35386190Y-28522380D02*
X35386190Y-27522380D01*
X35481428Y-27665238D01*
X35576666Y-27760476D01*
X35671904Y-27808095D01*
%TO.C,R5*%
X46144666Y-39602380D02*
X46478000Y-39126190D01*
X46716095Y-39602380D02*
X46716095Y-38602380D01*
X46335142Y-38602380D01*
X46239904Y-38650000D01*
X46192285Y-38697619D01*
X46144666Y-38792857D01*
X46144666Y-38935714D01*
X46192285Y-39030952D01*
X46239904Y-39078571D01*
X46335142Y-39126190D01*
X46716095Y-39126190D01*
X45239904Y-38602380D02*
X45716095Y-38602380D01*
X45763714Y-39078571D01*
X45716095Y-39030952D01*
X45620857Y-38983333D01*
X45382761Y-38983333D01*
X45287523Y-39030952D01*
X45239904Y-39078571D01*
X45192285Y-39173809D01*
X45192285Y-39411904D01*
X45239904Y-39507142D01*
X45287523Y-39554761D01*
X45382761Y-39602380D01*
X45620857Y-39602380D01*
X45716095Y-39554761D01*
X45763714Y-39507142D01*
%TO.C,R6*%
X25776666Y-31482380D02*
X26110000Y-31006190D01*
X26348095Y-31482380D02*
X26348095Y-30482380D01*
X25967142Y-30482380D01*
X25871904Y-30530000D01*
X25824285Y-30577619D01*
X25776666Y-30672857D01*
X25776666Y-30815714D01*
X25824285Y-30910952D01*
X25871904Y-30958571D01*
X25967142Y-31006190D01*
X26348095Y-31006190D01*
X24919523Y-30482380D02*
X25110000Y-30482380D01*
X25205238Y-30530000D01*
X25252857Y-30577619D01*
X25348095Y-30720476D01*
X25395714Y-30910952D01*
X25395714Y-31291904D01*
X25348095Y-31387142D01*
X25300476Y-31434761D01*
X25205238Y-31482380D01*
X25014761Y-31482380D01*
X24919523Y-31434761D01*
X24871904Y-31387142D01*
X24824285Y-31291904D01*
X24824285Y-31053809D01*
X24871904Y-30958571D01*
X24919523Y-30910952D01*
X25014761Y-30863333D01*
X25205238Y-30863333D01*
X25300476Y-30910952D01*
X25348095Y-30958571D01*
X25395714Y-31053809D01*
%TO.C,C7*%
X38864666Y-31957142D02*
X38912285Y-32004761D01*
X39055142Y-32052380D01*
X39150380Y-32052380D01*
X39293238Y-32004761D01*
X39388476Y-31909523D01*
X39436095Y-31814285D01*
X39483714Y-31623809D01*
X39483714Y-31480952D01*
X39436095Y-31290476D01*
X39388476Y-31195238D01*
X39293238Y-31100000D01*
X39150380Y-31052380D01*
X39055142Y-31052380D01*
X38912285Y-31100000D01*
X38864666Y-31147619D01*
X38531333Y-31052380D02*
X37864666Y-31052380D01*
X38293238Y-32052380D01*
%TO.C,C2*%
X43535142Y-36813333D02*
X43582761Y-36765714D01*
X43630380Y-36622857D01*
X43630380Y-36527619D01*
X43582761Y-36384761D01*
X43487523Y-36289523D01*
X43392285Y-36241904D01*
X43201809Y-36194285D01*
X43058952Y-36194285D01*
X42868476Y-36241904D01*
X42773238Y-36289523D01*
X42678000Y-36384761D01*
X42630380Y-36527619D01*
X42630380Y-36622857D01*
X42678000Y-36765714D01*
X42725619Y-36813333D01*
X42725619Y-37194285D02*
X42678000Y-37241904D01*
X42630380Y-37337142D01*
X42630380Y-37575238D01*
X42678000Y-37670476D01*
X42725619Y-37718095D01*
X42820857Y-37765714D01*
X42916095Y-37765714D01*
X43058952Y-37718095D01*
X43630380Y-37146666D01*
X43630380Y-37765714D01*
%TO.C,R9*%
X46866666Y-28732380D02*
X47200000Y-28256190D01*
X47438095Y-28732380D02*
X47438095Y-27732380D01*
X47057142Y-27732380D01*
X46961904Y-27780000D01*
X46914285Y-27827619D01*
X46866666Y-27922857D01*
X46866666Y-28065714D01*
X46914285Y-28160952D01*
X46961904Y-28208571D01*
X47057142Y-28256190D01*
X47438095Y-28256190D01*
X46390476Y-28732380D02*
X46200000Y-28732380D01*
X46104761Y-28684761D01*
X46057142Y-28637142D01*
X45961904Y-28494285D01*
X45914285Y-28303809D01*
X45914285Y-27922857D01*
X45961904Y-27827619D01*
X46009523Y-27780000D01*
X46104761Y-27732380D01*
X46295238Y-27732380D01*
X46390476Y-27780000D01*
X46438095Y-27827619D01*
X46485714Y-27922857D01*
X46485714Y-28160952D01*
X46438095Y-28256190D01*
X46390476Y-28303809D01*
X46295238Y-28351428D01*
X46104761Y-28351428D01*
X46009523Y-28303809D01*
X45961904Y-28256190D01*
X45914285Y-28160952D01*
%TO.C,J4*%
X42433333Y-20922380D02*
X42433333Y-21636666D01*
X42480952Y-21779523D01*
X42576190Y-21874761D01*
X42719047Y-21922380D01*
X42814285Y-21922380D01*
X41528571Y-21255714D02*
X41528571Y-21922380D01*
X41766666Y-20874761D02*
X42004761Y-21589047D01*
X41385714Y-21589047D01*
%TO.C,R7*%
X23206666Y-37284380D02*
X23540000Y-36808190D01*
X23778095Y-37284380D02*
X23778095Y-36284380D01*
X23397142Y-36284380D01*
X23301904Y-36332000D01*
X23254285Y-36379619D01*
X23206666Y-36474857D01*
X23206666Y-36617714D01*
X23254285Y-36712952D01*
X23301904Y-36760571D01*
X23397142Y-36808190D01*
X23778095Y-36808190D01*
X22873333Y-36284380D02*
X22206666Y-36284380D01*
X22635238Y-37284380D01*
%TO.C,R12*%
X50990857Y-34912380D02*
X51324190Y-34436190D01*
X51562285Y-34912380D02*
X51562285Y-33912380D01*
X51181333Y-33912380D01*
X51086095Y-33960000D01*
X51038476Y-34007619D01*
X50990857Y-34102857D01*
X50990857Y-34245714D01*
X51038476Y-34340952D01*
X51086095Y-34388571D01*
X51181333Y-34436190D01*
X51562285Y-34436190D01*
X50038476Y-34912380D02*
X50609904Y-34912380D01*
X50324190Y-34912380D02*
X50324190Y-33912380D01*
X50419428Y-34055238D01*
X50514666Y-34150476D01*
X50609904Y-34198095D01*
X49657523Y-34007619D02*
X49609904Y-33960000D01*
X49514666Y-33912380D01*
X49276571Y-33912380D01*
X49181333Y-33960000D01*
X49133714Y-34007619D01*
X49086095Y-34102857D01*
X49086095Y-34198095D01*
X49133714Y-34340952D01*
X49705142Y-34912380D01*
X49086095Y-34912380D01*
%TO.C,R8*%
X52428666Y-38722380D02*
X52762000Y-38246190D01*
X53000095Y-38722380D02*
X53000095Y-37722380D01*
X52619142Y-37722380D01*
X52523904Y-37770000D01*
X52476285Y-37817619D01*
X52428666Y-37912857D01*
X52428666Y-38055714D01*
X52476285Y-38150952D01*
X52523904Y-38198571D01*
X52619142Y-38246190D01*
X53000095Y-38246190D01*
X51857238Y-38150952D02*
X51952476Y-38103333D01*
X52000095Y-38055714D01*
X52047714Y-37960476D01*
X52047714Y-37912857D01*
X52000095Y-37817619D01*
X51952476Y-37770000D01*
X51857238Y-37722380D01*
X51666761Y-37722380D01*
X51571523Y-37770000D01*
X51523904Y-37817619D01*
X51476285Y-37912857D01*
X51476285Y-37960476D01*
X51523904Y-38055714D01*
X51571523Y-38103333D01*
X51666761Y-38150952D01*
X51857238Y-38150952D01*
X51952476Y-38198571D01*
X52000095Y-38246190D01*
X52047714Y-38341428D01*
X52047714Y-38531904D01*
X52000095Y-38627142D01*
X51952476Y-38674761D01*
X51857238Y-38722380D01*
X51666761Y-38722380D01*
X51571523Y-38674761D01*
X51523904Y-38627142D01*
X51476285Y-38531904D01*
X51476285Y-38341428D01*
X51523904Y-38246190D01*
X51571523Y-38198571D01*
X51666761Y-38150952D01*
%TO.C,C3*%
X32834666Y-31997142D02*
X32882285Y-32044761D01*
X33025142Y-32092380D01*
X33120380Y-32092380D01*
X33263238Y-32044761D01*
X33358476Y-31949523D01*
X33406095Y-31854285D01*
X33453714Y-31663809D01*
X33453714Y-31520952D01*
X33406095Y-31330476D01*
X33358476Y-31235238D01*
X33263238Y-31140000D01*
X33120380Y-31092380D01*
X33025142Y-31092380D01*
X32882285Y-31140000D01*
X32834666Y-31187619D01*
X32501333Y-31092380D02*
X31882285Y-31092380D01*
X32215619Y-31473333D01*
X32072761Y-31473333D01*
X31977523Y-31520952D01*
X31929904Y-31568571D01*
X31882285Y-31663809D01*
X31882285Y-31901904D01*
X31929904Y-31997142D01*
X31977523Y-32044761D01*
X32072761Y-32092380D01*
X32358476Y-32092380D01*
X32453714Y-32044761D01*
X32501333Y-31997142D01*
%TO.C,R4*%
X30244666Y-40632380D02*
X30578000Y-40156190D01*
X30816095Y-40632380D02*
X30816095Y-39632380D01*
X30435142Y-39632380D01*
X30339904Y-39680000D01*
X30292285Y-39727619D01*
X30244666Y-39822857D01*
X30244666Y-39965714D01*
X30292285Y-40060952D01*
X30339904Y-40108571D01*
X30435142Y-40156190D01*
X30816095Y-40156190D01*
X29387523Y-39965714D02*
X29387523Y-40632380D01*
X29625619Y-39584761D02*
X29863714Y-40299047D01*
X29244666Y-40299047D01*
%TO.C,C8*%
X37884666Y-38117142D02*
X37932285Y-38164761D01*
X38075142Y-38212380D01*
X38170380Y-38212380D01*
X38313238Y-38164761D01*
X38408476Y-38069523D01*
X38456095Y-37974285D01*
X38503714Y-37783809D01*
X38503714Y-37640952D01*
X38456095Y-37450476D01*
X38408476Y-37355238D01*
X38313238Y-37260000D01*
X38170380Y-37212380D01*
X38075142Y-37212380D01*
X37932285Y-37260000D01*
X37884666Y-37307619D01*
X37313238Y-37640952D02*
X37408476Y-37593333D01*
X37456095Y-37545714D01*
X37503714Y-37450476D01*
X37503714Y-37402857D01*
X37456095Y-37307619D01*
X37408476Y-37260000D01*
X37313238Y-37212380D01*
X37122761Y-37212380D01*
X37027523Y-37260000D01*
X36979904Y-37307619D01*
X36932285Y-37402857D01*
X36932285Y-37450476D01*
X36979904Y-37545714D01*
X37027523Y-37593333D01*
X37122761Y-37640952D01*
X37313238Y-37640952D01*
X37408476Y-37688571D01*
X37456095Y-37736190D01*
X37503714Y-37831428D01*
X37503714Y-38021904D01*
X37456095Y-38117142D01*
X37408476Y-38164761D01*
X37313238Y-38212380D01*
X37122761Y-38212380D01*
X37027523Y-38164761D01*
X36979904Y-38117142D01*
X36932285Y-38021904D01*
X36932285Y-37831428D01*
X36979904Y-37736190D01*
X37027523Y-37688571D01*
X37122761Y-37640952D01*
%TO.C,C5*%
X27284666Y-40557142D02*
X27332285Y-40604761D01*
X27475142Y-40652380D01*
X27570380Y-40652380D01*
X27713238Y-40604761D01*
X27808476Y-40509523D01*
X27856095Y-40414285D01*
X27903714Y-40223809D01*
X27903714Y-40080952D01*
X27856095Y-39890476D01*
X27808476Y-39795238D01*
X27713238Y-39700000D01*
X27570380Y-39652380D01*
X27475142Y-39652380D01*
X27332285Y-39700000D01*
X27284666Y-39747619D01*
X26379904Y-39652380D02*
X26856095Y-39652380D01*
X26903714Y-40128571D01*
X26856095Y-40080952D01*
X26760857Y-40033333D01*
X26522761Y-40033333D01*
X26427523Y-40080952D01*
X26379904Y-40128571D01*
X26332285Y-40223809D01*
X26332285Y-40461904D01*
X26379904Y-40557142D01*
X26427523Y-40604761D01*
X26522761Y-40652380D01*
X26760857Y-40652380D01*
X26856095Y-40604761D01*
X26903714Y-40557142D01*
%TO.C,R3*%
X33226666Y-36974380D02*
X33560000Y-36498190D01*
X33798095Y-36974380D02*
X33798095Y-35974380D01*
X33417142Y-35974380D01*
X33321904Y-36022000D01*
X33274285Y-36069619D01*
X33226666Y-36164857D01*
X33226666Y-36307714D01*
X33274285Y-36402952D01*
X33321904Y-36450571D01*
X33417142Y-36498190D01*
X33798095Y-36498190D01*
X32893333Y-35974380D02*
X32274285Y-35974380D01*
X32607619Y-36355333D01*
X32464761Y-36355333D01*
X32369523Y-36402952D01*
X32321904Y-36450571D01*
X32274285Y-36545809D01*
X32274285Y-36783904D01*
X32321904Y-36879142D01*
X32369523Y-36926761D01*
X32464761Y-36974380D01*
X32750476Y-36974380D01*
X32845714Y-36926761D01*
X32893333Y-36879142D01*
%TO.C,R1*%
X50054666Y-31282380D02*
X50388000Y-30806190D01*
X50626095Y-31282380D02*
X50626095Y-30282380D01*
X50245142Y-30282380D01*
X50149904Y-30330000D01*
X50102285Y-30377619D01*
X50054666Y-30472857D01*
X50054666Y-30615714D01*
X50102285Y-30710952D01*
X50149904Y-30758571D01*
X50245142Y-30806190D01*
X50626095Y-30806190D01*
X49102285Y-31282380D02*
X49673714Y-31282380D01*
X49388000Y-31282380D02*
X49388000Y-30282380D01*
X49483238Y-30425238D01*
X49578476Y-30520476D01*
X49673714Y-30568095D01*
%TO.C,J2*%
X47833333Y-47182380D02*
X47833333Y-47896666D01*
X47880952Y-48039523D01*
X47976190Y-48134761D01*
X48119047Y-48182380D01*
X48214285Y-48182380D01*
X47404761Y-47277619D02*
X47357142Y-47230000D01*
X47261904Y-47182380D01*
X47023809Y-47182380D01*
X46928571Y-47230000D01*
X46880952Y-47277619D01*
X46833333Y-47372857D01*
X46833333Y-47468095D01*
X46880952Y-47610952D01*
X47452380Y-48182380D01*
X46833333Y-48182380D01*
%TO.C,Q1*%
X29453838Y-27487019D02*
X29549076Y-27439400D01*
X29644314Y-27344161D01*
X29787171Y-27201304D01*
X29882409Y-27153685D01*
X29977647Y-27153685D01*
X29930028Y-27391780D02*
X30025266Y-27344161D01*
X30120504Y-27248923D01*
X30168123Y-27058447D01*
X30168123Y-26725114D01*
X30120504Y-26534638D01*
X30025266Y-26439400D01*
X29930028Y-26391780D01*
X29739552Y-26391780D01*
X29644314Y-26439400D01*
X29549076Y-26534638D01*
X29501457Y-26725114D01*
X29501457Y-27058447D01*
X29549076Y-27248923D01*
X29644314Y-27344161D01*
X29739552Y-27391780D01*
X29930028Y-27391780D01*
X28549076Y-27391780D02*
X29120504Y-27391780D01*
X28834790Y-27391780D02*
X28834790Y-26391780D01*
X28930028Y-26534638D01*
X29025266Y-26629876D01*
X29120504Y-26677495D01*
%TO.C,R10*%
X52012857Y-26954380D02*
X52346190Y-26478190D01*
X52584285Y-26954380D02*
X52584285Y-25954380D01*
X52203333Y-25954380D01*
X52108095Y-26002000D01*
X52060476Y-26049619D01*
X52012857Y-26144857D01*
X52012857Y-26287714D01*
X52060476Y-26382952D01*
X52108095Y-26430571D01*
X52203333Y-26478190D01*
X52584285Y-26478190D01*
X51060476Y-26954380D02*
X51631904Y-26954380D01*
X51346190Y-26954380D02*
X51346190Y-25954380D01*
X51441428Y-26097238D01*
X51536666Y-26192476D01*
X51631904Y-26240095D01*
X50441428Y-25954380D02*
X50346190Y-25954380D01*
X50250952Y-26002000D01*
X50203333Y-26049619D01*
X50155714Y-26144857D01*
X50108095Y-26335333D01*
X50108095Y-26573428D01*
X50155714Y-26763904D01*
X50203333Y-26859142D01*
X50250952Y-26906761D01*
X50346190Y-26954380D01*
X50441428Y-26954380D01*
X50536666Y-26906761D01*
X50584285Y-26859142D01*
X50631904Y-26763904D01*
X50679523Y-26573428D01*
X50679523Y-26335333D01*
X50631904Y-26144857D01*
X50584285Y-26049619D01*
X50536666Y-26002000D01*
X50441428Y-25954380D01*
%TO.C,D2*%
X38853095Y-49750380D02*
X38853095Y-48750380D01*
X38615000Y-48750380D01*
X38472142Y-48798000D01*
X38376904Y-48893238D01*
X38329285Y-48988476D01*
X38281666Y-49178952D01*
X38281666Y-49321809D01*
X38329285Y-49512285D01*
X38376904Y-49607523D01*
X38472142Y-49702761D01*
X38615000Y-49750380D01*
X38853095Y-49750380D01*
X37900714Y-48845619D02*
X37853095Y-48798000D01*
X37757857Y-48750380D01*
X37519761Y-48750380D01*
X37424523Y-48798000D01*
X37376904Y-48845619D01*
X37329285Y-48940857D01*
X37329285Y-49036095D01*
X37376904Y-49178952D01*
X37948333Y-49750380D01*
X37329285Y-49750380D01*
%TO.C,C6*%
X40564666Y-27737142D02*
X40612285Y-27784761D01*
X40755142Y-27832380D01*
X40850380Y-27832380D01*
X40993238Y-27784761D01*
X41088476Y-27689523D01*
X41136095Y-27594285D01*
X41183714Y-27403809D01*
X41183714Y-27260952D01*
X41136095Y-27070476D01*
X41088476Y-26975238D01*
X40993238Y-26880000D01*
X40850380Y-26832380D01*
X40755142Y-26832380D01*
X40612285Y-26880000D01*
X40564666Y-26927619D01*
X39707523Y-26832380D02*
X39898000Y-26832380D01*
X39993238Y-26880000D01*
X40040857Y-26927619D01*
X40136095Y-27070476D01*
X40183714Y-27260952D01*
X40183714Y-27641904D01*
X40136095Y-27737142D01*
X40088476Y-27784761D01*
X39993238Y-27832380D01*
X39802761Y-27832380D01*
X39707523Y-27784761D01*
X39659904Y-27737142D01*
X39612285Y-27641904D01*
X39612285Y-27403809D01*
X39659904Y-27308571D01*
X39707523Y-27260952D01*
X39802761Y-27213333D01*
X39993238Y-27213333D01*
X40088476Y-27260952D01*
X40136095Y-27308571D01*
X40183714Y-27403809D01*
%TO.C,J1*%
X25383333Y-44982380D02*
X25383333Y-45696666D01*
X25430952Y-45839523D01*
X25526190Y-45934761D01*
X25669047Y-45982380D01*
X25764285Y-45982380D01*
X24383333Y-45982380D02*
X24954761Y-45982380D01*
X24669047Y-45982380D02*
X24669047Y-44982380D01*
X24764285Y-45125238D01*
X24859523Y-45220476D01*
X24954761Y-45268095D01*
%TO.C,R2*%
X42566666Y-31892380D02*
X42900000Y-31416190D01*
X43138095Y-31892380D02*
X43138095Y-30892380D01*
X42757142Y-30892380D01*
X42661904Y-30940000D01*
X42614285Y-30987619D01*
X42566666Y-31082857D01*
X42566666Y-31225714D01*
X42614285Y-31320952D01*
X42661904Y-31368571D01*
X42757142Y-31416190D01*
X43138095Y-31416190D01*
X42185714Y-30987619D02*
X42138095Y-30940000D01*
X42042857Y-30892380D01*
X41804761Y-30892380D01*
X41709523Y-30940000D01*
X41661904Y-30987619D01*
X41614285Y-31082857D01*
X41614285Y-31178095D01*
X41661904Y-31320952D01*
X42233333Y-31892380D01*
X41614285Y-31892380D01*
%TO.C,J3*%
X29733333Y-20922380D02*
X29733333Y-21636666D01*
X29780952Y-21779523D01*
X29876190Y-21874761D01*
X30019047Y-21922380D01*
X30114285Y-21922380D01*
X29352380Y-20922380D02*
X28733333Y-20922380D01*
X29066666Y-21303333D01*
X28923809Y-21303333D01*
X28828571Y-21350952D01*
X28780952Y-21398571D01*
X28733333Y-21493809D01*
X28733333Y-21731904D01*
X28780952Y-21827142D01*
X28828571Y-21874761D01*
X28923809Y-21922380D01*
X29209523Y-21922380D01*
X29304761Y-21874761D01*
X29352380Y-21827142D01*
%TO.C,C11*%
X20812857Y-28799142D02*
X20860476Y-28846761D01*
X21003333Y-28894380D01*
X21098571Y-28894380D01*
X21241428Y-28846761D01*
X21336666Y-28751523D01*
X21384285Y-28656285D01*
X21431904Y-28465809D01*
X21431904Y-28322952D01*
X21384285Y-28132476D01*
X21336666Y-28037238D01*
X21241428Y-27942000D01*
X21098571Y-27894380D01*
X21003333Y-27894380D01*
X20860476Y-27942000D01*
X20812857Y-27989619D01*
X19860476Y-28894380D02*
X20431904Y-28894380D01*
X20146190Y-28894380D02*
X20146190Y-27894380D01*
X20241428Y-28037238D01*
X20336666Y-28132476D01*
X20431904Y-28180095D01*
X18908095Y-28894380D02*
X19479523Y-28894380D01*
X19193809Y-28894380D02*
X19193809Y-27894380D01*
X19289047Y-28037238D01*
X19384285Y-28132476D01*
X19479523Y-28180095D01*
%TO.C,D3*%
X47423095Y-30532380D02*
X47423095Y-29532380D01*
X47185000Y-29532380D01*
X47042142Y-29580000D01*
X46946904Y-29675238D01*
X46899285Y-29770476D01*
X46851666Y-29960952D01*
X46851666Y-30103809D01*
X46899285Y-30294285D01*
X46946904Y-30389523D01*
X47042142Y-30484761D01*
X47185000Y-30532380D01*
X47423095Y-30532380D01*
X46518333Y-29532380D02*
X45899285Y-29532380D01*
X46232619Y-29913333D01*
X46089761Y-29913333D01*
X45994523Y-29960952D01*
X45946904Y-30008571D01*
X45899285Y-30103809D01*
X45899285Y-30341904D01*
X45946904Y-30437142D01*
X45994523Y-30484761D01*
X46089761Y-30532380D01*
X46375476Y-30532380D01*
X46470714Y-30484761D01*
X46518333Y-30437142D01*
%TO.C,R11*%
X20292857Y-35524380D02*
X20626190Y-35048190D01*
X20864285Y-35524380D02*
X20864285Y-34524380D01*
X20483333Y-34524380D01*
X20388095Y-34572000D01*
X20340476Y-34619619D01*
X20292857Y-34714857D01*
X20292857Y-34857714D01*
X20340476Y-34952952D01*
X20388095Y-35000571D01*
X20483333Y-35048190D01*
X20864285Y-35048190D01*
X19340476Y-35524380D02*
X19911904Y-35524380D01*
X19626190Y-35524380D02*
X19626190Y-34524380D01*
X19721428Y-34667238D01*
X19816666Y-34762476D01*
X19911904Y-34810095D01*
X18388095Y-35524380D02*
X18959523Y-35524380D01*
X18673809Y-35524380D02*
X18673809Y-34524380D01*
X18769047Y-34667238D01*
X18864285Y-34762476D01*
X18959523Y-34810095D01*
%TO.C,C10*%
X45209142Y-40267142D02*
X45256761Y-40219523D01*
X45304380Y-40076666D01*
X45304380Y-39981428D01*
X45256761Y-39838571D01*
X45161523Y-39743333D01*
X45066285Y-39695714D01*
X44875809Y-39648095D01*
X44732952Y-39648095D01*
X44542476Y-39695714D01*
X44447238Y-39743333D01*
X44352000Y-39838571D01*
X44304380Y-39981428D01*
X44304380Y-40076666D01*
X44352000Y-40219523D01*
X44399619Y-40267142D01*
X45304380Y-41219523D02*
X45304380Y-40648095D01*
X45304380Y-40933809D02*
X44304380Y-40933809D01*
X44447238Y-40838571D01*
X44542476Y-40743333D01*
X44590095Y-40648095D01*
X44304380Y-41838571D02*
X44304380Y-41933809D01*
X44352000Y-42029047D01*
X44399619Y-42076666D01*
X44494857Y-42124285D01*
X44685333Y-42171904D01*
X44923428Y-42171904D01*
X45113904Y-42124285D01*
X45209142Y-42076666D01*
X45256761Y-42029047D01*
X45304380Y-41933809D01*
X45304380Y-41838571D01*
X45256761Y-41743333D01*
X45209142Y-41695714D01*
X45113904Y-41648095D01*
X44923428Y-41600476D01*
X44685333Y-41600476D01*
X44494857Y-41648095D01*
X44399619Y-41695714D01*
X44352000Y-41743333D01*
X44304380Y-41838571D01*
%TO.C,C4*%
X23046666Y-32485142D02*
X23094285Y-32532761D01*
X23237142Y-32580380D01*
X23332380Y-32580380D01*
X23475238Y-32532761D01*
X23570476Y-32437523D01*
X23618095Y-32342285D01*
X23665714Y-32151809D01*
X23665714Y-32008952D01*
X23618095Y-31818476D01*
X23570476Y-31723238D01*
X23475238Y-31628000D01*
X23332380Y-31580380D01*
X23237142Y-31580380D01*
X23094285Y-31628000D01*
X23046666Y-31675619D01*
X22189523Y-31913714D02*
X22189523Y-32580380D01*
X22427619Y-31532761D02*
X22665714Y-32247047D01*
X22046666Y-32247047D01*
%TO.C,C9*%
X25667166Y-25879142D02*
X25714785Y-25926761D01*
X25857642Y-25974380D01*
X25952880Y-25974380D01*
X26095738Y-25926761D01*
X26190976Y-25831523D01*
X26238595Y-25736285D01*
X26286214Y-25545809D01*
X26286214Y-25402952D01*
X26238595Y-25212476D01*
X26190976Y-25117238D01*
X26095738Y-25022000D01*
X25952880Y-24974380D01*
X25857642Y-24974380D01*
X25714785Y-25022000D01*
X25667166Y-25069619D01*
X25190976Y-25974380D02*
X25000500Y-25974380D01*
X24905261Y-25926761D01*
X24857642Y-25879142D01*
X24762404Y-25736285D01*
X24714785Y-25545809D01*
X24714785Y-25164857D01*
X24762404Y-25069619D01*
X24810023Y-25022000D01*
X24905261Y-24974380D01*
X25095738Y-24974380D01*
X25190976Y-25022000D01*
X25238595Y-25069619D01*
X25286214Y-25164857D01*
X25286214Y-25402952D01*
X25238595Y-25498190D01*
X25190976Y-25545809D01*
X25095738Y-25593428D01*
X24905261Y-25593428D01*
X24810023Y-25545809D01*
X24762404Y-25498190D01*
X24714785Y-25402952D01*
%TO.C,C1*%
X46837166Y-35817142D02*
X46884785Y-35864761D01*
X47027642Y-35912380D01*
X47122880Y-35912380D01*
X47265738Y-35864761D01*
X47360976Y-35769523D01*
X47408595Y-35674285D01*
X47456214Y-35483809D01*
X47456214Y-35340952D01*
X47408595Y-35150476D01*
X47360976Y-35055238D01*
X47265738Y-34960000D01*
X47122880Y-34912380D01*
X47027642Y-34912380D01*
X46884785Y-34960000D01*
X46837166Y-35007619D01*
X45884785Y-35912380D02*
X46456214Y-35912380D01*
X46170500Y-35912380D02*
X46170500Y-34912380D01*
X46265738Y-35055238D01*
X46360976Y-35150476D01*
X46456214Y-35198095D01*
%TO.C,D1*%
X33926095Y-49722380D02*
X33926095Y-48722380D01*
X33688000Y-48722380D01*
X33545142Y-48770000D01*
X33449904Y-48865238D01*
X33402285Y-48960476D01*
X33354666Y-49150952D01*
X33354666Y-49293809D01*
X33402285Y-49484285D01*
X33449904Y-49579523D01*
X33545142Y-49674761D01*
X33688000Y-49722380D01*
X33926095Y-49722380D01*
X32402285Y-49722380D02*
X32973714Y-49722380D01*
X32688000Y-49722380D02*
X32688000Y-48722380D01*
X32783238Y-48865238D01*
X32878476Y-48960476D01*
X32973714Y-49008095D01*
D11*
%TO.C,U1*%
X35910000Y-25560000D02*
X33960000Y-25560000D01*
X35910000Y-30680000D02*
X33960000Y-30680000D01*
X35910000Y-25560000D02*
X39360000Y-25560000D01*
X35910000Y-30680000D02*
X37860000Y-30680000D01*
%TO.C,R5*%
X45700936Y-36765000D02*
X46155064Y-36765000D01*
X45700936Y-38235000D02*
X46155064Y-38235000D01*
%TO.C,R6*%
X24875000Y-28252936D02*
X24875000Y-28707064D01*
X26345000Y-28252936D02*
X26345000Y-28707064D01*
%TO.C,G1*%
G36*
X37259899Y-53005093D02*
G01*
X37108017Y-53064799D01*
X36990013Y-53083509D01*
X36782833Y-53081329D01*
X36585610Y-53044253D01*
X36436732Y-52977284D01*
X36366171Y-52905305D01*
X36346852Y-52854724D01*
X36550366Y-52854724D01*
X36581093Y-52915273D01*
X36597153Y-52926541D01*
X36716994Y-52972205D01*
X36867696Y-52994580D01*
X37000675Y-52985532D01*
X37067255Y-52960230D01*
X37128628Y-52885724D01*
X37106309Y-52779170D01*
X37102199Y-52771732D01*
X37058411Y-52724270D01*
X36983844Y-52710353D01*
X36850043Y-52723838D01*
X36724149Y-52748919D01*
X36600991Y-52797180D01*
X36550366Y-52854724D01*
X36346852Y-52854724D01*
X36310129Y-52758576D01*
X36310129Y-52701317D01*
X36364260Y-52580205D01*
X36491070Y-52503390D01*
X36683627Y-52476115D01*
X36719862Y-52475662D01*
X36905661Y-52459659D01*
X37025726Y-52423236D01*
X37068348Y-52369635D01*
X37066622Y-52361132D01*
X37008318Y-52334028D01*
X36873424Y-52333680D01*
X36773727Y-52336619D01*
X36652189Y-52308450D01*
X36531319Y-52225339D01*
X36461969Y-52163083D01*
X36411382Y-52091341D01*
X36393878Y-51998113D01*
X36397178Y-51853742D01*
X36708228Y-51853742D01*
X36708535Y-52005962D01*
X36734809Y-52134676D01*
X36747700Y-52159711D01*
X36816862Y-52203475D01*
X36896194Y-52183396D01*
X36949682Y-52104529D01*
X36962697Y-52047721D01*
X36977104Y-51884640D01*
X36960068Y-51742677D01*
X36917556Y-51639031D01*
X36855538Y-51590902D01*
X36779980Y-51615486D01*
X36773047Y-51622129D01*
X36730772Y-51713852D01*
X36708228Y-51853742D01*
X36397178Y-51853742D01*
X36397281Y-51849237D01*
X36398213Y-51747524D01*
X36384355Y-51598305D01*
X36355905Y-51498436D01*
X36321505Y-51426498D01*
X36301386Y-51356638D01*
X36301509Y-51353075D01*
X36342111Y-51300009D01*
X36428097Y-51279765D01*
X36519561Y-51302286D01*
X36555483Y-51330106D01*
X36538242Y-51347473D01*
X36506741Y-51362840D01*
X36481847Y-51433881D01*
X36489634Y-51477834D01*
X36527153Y-51501209D01*
X36614379Y-51505738D01*
X36771278Y-51495684D01*
X36928788Y-51486192D01*
X37032574Y-51493731D01*
X37105467Y-51525732D01*
X37177318Y-51589059D01*
X37229780Y-51655263D01*
X37290727Y-51824592D01*
X37288107Y-51884640D01*
X37282741Y-52007612D01*
X37204343Y-52172410D01*
X37158581Y-52235574D01*
X37142577Y-52293647D01*
X37181785Y-52341923D01*
X37201912Y-52363089D01*
X37242036Y-52459468D01*
X37242413Y-52565265D01*
X37200299Y-52636734D01*
X37187328Y-52677528D01*
X37245414Y-52753943D01*
X37306434Y-52825994D01*
X37318678Y-52885724D01*
X37326579Y-52924267D01*
X37259899Y-53005093D01*
G37*
G36*
X40302952Y-50991649D02*
G01*
X40430300Y-51028109D01*
X40545709Y-51119797D01*
X40546119Y-51120208D01*
X40644455Y-51253631D01*
X40675170Y-51396980D01*
X40636003Y-51559670D01*
X40524693Y-51751115D01*
X40338981Y-51980729D01*
X40240745Y-52101378D01*
X40152878Y-52231022D01*
X40107832Y-52325913D01*
X40098163Y-52379813D01*
X40109163Y-52525986D01*
X40168169Y-52639966D01*
X40263658Y-52694493D01*
X40353977Y-52691981D01*
X40454792Y-52623410D01*
X40513116Y-52475720D01*
X40552385Y-52377794D01*
X40623674Y-52343771D01*
X40713677Y-52395524D01*
X40762668Y-52481407D01*
X40739559Y-52595720D01*
X40629008Y-52720856D01*
X40470235Y-52810972D01*
X40261537Y-52834741D01*
X40027858Y-52774748D01*
X39873764Y-52680172D01*
X39765735Y-52524170D01*
X39730160Y-52314873D01*
X39730314Y-52296970D01*
X39740825Y-52192561D01*
X39775115Y-52093272D01*
X39843337Y-51982022D01*
X39955643Y-51841728D01*
X40122188Y-51655307D01*
X40216061Y-51539629D01*
X40303622Y-51372292D01*
X40315243Y-51230797D01*
X40248988Y-51123268D01*
X40238531Y-51115386D01*
X40153917Y-51100222D01*
X40079929Y-51157736D01*
X40037398Y-51273169D01*
X40004921Y-51347851D01*
X39937463Y-51376114D01*
X39868344Y-51342980D01*
X39829094Y-51251698D01*
X39830653Y-51190757D01*
X39891948Y-51082634D01*
X40024216Y-51012741D01*
X40217381Y-50987921D01*
X40302952Y-50991649D01*
G37*
G36*
X32793469Y-53005093D02*
G01*
X32641587Y-53064799D01*
X32523583Y-53083509D01*
X32316403Y-53081329D01*
X32119180Y-53044253D01*
X31970302Y-52977284D01*
X31899742Y-52905305D01*
X31880423Y-52854724D01*
X32083936Y-52854724D01*
X32114663Y-52915273D01*
X32130723Y-52926541D01*
X32250564Y-52972205D01*
X32401267Y-52994580D01*
X32534245Y-52985532D01*
X32600825Y-52960230D01*
X32662198Y-52885724D01*
X32639879Y-52779170D01*
X32635769Y-52771732D01*
X32591981Y-52724270D01*
X32517414Y-52710353D01*
X32383613Y-52723838D01*
X32257719Y-52748919D01*
X32134561Y-52797180D01*
X32083936Y-52854724D01*
X31880423Y-52854724D01*
X31843699Y-52758576D01*
X31843700Y-52701317D01*
X31897830Y-52580205D01*
X32024640Y-52503390D01*
X32217197Y-52476115D01*
X32253432Y-52475662D01*
X32439231Y-52459659D01*
X32559296Y-52423236D01*
X32601919Y-52369635D01*
X32600192Y-52361132D01*
X32541888Y-52334028D01*
X32406994Y-52333680D01*
X32307297Y-52336619D01*
X32185760Y-52308450D01*
X32064889Y-52225339D01*
X31995539Y-52163083D01*
X31944953Y-52091341D01*
X31927448Y-51998113D01*
X31930749Y-51853742D01*
X32241799Y-51853742D01*
X32242105Y-52005962D01*
X32268379Y-52134676D01*
X32281270Y-52159711D01*
X32350432Y-52203475D01*
X32429764Y-52183396D01*
X32483252Y-52104529D01*
X32496267Y-52047721D01*
X32510674Y-51884640D01*
X32493638Y-51742677D01*
X32451126Y-51639031D01*
X32389108Y-51590902D01*
X32313550Y-51615486D01*
X32306617Y-51622129D01*
X32264342Y-51713852D01*
X32241799Y-51853742D01*
X31930749Y-51853742D01*
X31930852Y-51849237D01*
X31931783Y-51747524D01*
X31917925Y-51598305D01*
X31889475Y-51498436D01*
X31855075Y-51426498D01*
X31834956Y-51356638D01*
X31835079Y-51353075D01*
X31875681Y-51300009D01*
X31961667Y-51279765D01*
X32053132Y-51302286D01*
X32089053Y-51330106D01*
X32071812Y-51347473D01*
X32040312Y-51362840D01*
X32015418Y-51433881D01*
X32023204Y-51477834D01*
X32060723Y-51501209D01*
X32147949Y-51505738D01*
X32304849Y-51495684D01*
X32462359Y-51486192D01*
X32566145Y-51493731D01*
X32639038Y-51525732D01*
X32710888Y-51589059D01*
X32763350Y-51655263D01*
X32824298Y-51824592D01*
X32821678Y-51884640D01*
X32816311Y-52007612D01*
X32737913Y-52172410D01*
X32692151Y-52235574D01*
X32676147Y-52293647D01*
X32715355Y-52341923D01*
X32735482Y-52363089D01*
X32775606Y-52459468D01*
X32775984Y-52565265D01*
X32733869Y-52636734D01*
X32720898Y-52677528D01*
X32778984Y-52753943D01*
X32840004Y-52825994D01*
X32852248Y-52885724D01*
X32860149Y-52924267D01*
X32793469Y-53005093D01*
G37*
G36*
X39501055Y-52330375D02*
G01*
X39384186Y-52473407D01*
X39219773Y-52559003D01*
X39085019Y-52574909D01*
X38940938Y-52559558D01*
X38937744Y-52558667D01*
X38840820Y-52532632D01*
X38793649Y-52521847D01*
X38789874Y-52519346D01*
X38752237Y-52469294D01*
X38692010Y-52375222D01*
X38633573Y-52238612D01*
X38602442Y-51988270D01*
X38602552Y-51968308D01*
X38939014Y-51968308D01*
X38939579Y-52145800D01*
X38960490Y-52300910D01*
X39002558Y-52402124D01*
X39056956Y-52455894D01*
X39124741Y-52466209D01*
X39187187Y-52389466D01*
X39197193Y-52366819D01*
X39223990Y-52239120D01*
X39233773Y-52069848D01*
X39227336Y-51891689D01*
X39205472Y-51737324D01*
X39168974Y-51639440D01*
X39131078Y-51592270D01*
X39086925Y-51578417D01*
X39022349Y-51632428D01*
X38995680Y-51672245D01*
X38957984Y-51799951D01*
X38939014Y-51968308D01*
X38602552Y-51968308D01*
X38602636Y-51953167D01*
X38614156Y-51810643D01*
X38653396Y-51711269D01*
X38734150Y-51616067D01*
X38834645Y-51541349D01*
X39018451Y-51482958D01*
X39211436Y-51493562D01*
X39382444Y-51575128D01*
X39422566Y-51610469D01*
X39531137Y-51769952D01*
X39578057Y-51957318D01*
X39571556Y-52069848D01*
X39566854Y-52151235D01*
X39501055Y-52330375D01*
G37*
G36*
X38485795Y-51511576D02*
G01*
X38545304Y-51554643D01*
X38551968Y-51597648D01*
X38500764Y-51608259D01*
X38476761Y-51621937D01*
X38455534Y-51694025D01*
X38440967Y-51836267D01*
X38431521Y-52058666D01*
X38428947Y-52137059D01*
X38413993Y-52354473D01*
X38385432Y-52495340D01*
X38337694Y-52570103D01*
X38265207Y-52589203D01*
X38162398Y-52563085D01*
X38120126Y-52542911D01*
X38087751Y-52505073D01*
X38069957Y-52433929D01*
X38062438Y-52310510D01*
X38060888Y-52115846D01*
X38060884Y-52106000D01*
X38057656Y-51906822D01*
X38046591Y-51780462D01*
X38024997Y-51710323D01*
X37990183Y-51679805D01*
X37972824Y-51673978D01*
X37898116Y-51679314D01*
X37849487Y-51750713D01*
X37824033Y-51895668D01*
X37818847Y-52121673D01*
X37823076Y-52266266D01*
X37838360Y-52420002D01*
X37869304Y-52527854D01*
X37921345Y-52616050D01*
X37934318Y-52633651D01*
X37986336Y-52711096D01*
X37985259Y-52741901D01*
X37932977Y-52747424D01*
X37870767Y-52735791D01*
X37743638Y-52663157D01*
X37623135Y-52544286D01*
X37536594Y-52402932D01*
X37523889Y-52368797D01*
X37486256Y-52185340D01*
X37477147Y-51973548D01*
X37496242Y-51771506D01*
X37543219Y-51617297D01*
X37561470Y-51584438D01*
X37638282Y-51505115D01*
X37753965Y-51484191D01*
X37874737Y-51505504D01*
X37982083Y-51562204D01*
X38030107Y-51603129D01*
X38073939Y-51614357D01*
X38111945Y-51562204D01*
X38122969Y-51546847D01*
X38214290Y-51497273D01*
X38347105Y-51483908D01*
X38485795Y-51511576D01*
G37*
G36*
X31774297Y-52401200D02*
G01*
X31706649Y-52514455D01*
X31586821Y-52577388D01*
X31466299Y-52580567D01*
X31307869Y-52511825D01*
X31255166Y-52497683D01*
X31149964Y-52538284D01*
X31075167Y-52577241D01*
X30999502Y-52577659D01*
X30887531Y-52534434D01*
X30821504Y-52502163D01*
X30776906Y-52465500D01*
X30808579Y-52443997D01*
X30813817Y-52442617D01*
X30851712Y-52417684D01*
X30874121Y-52357673D01*
X30884806Y-52244234D01*
X30887504Y-52060859D01*
X31254834Y-52060859D01*
X31257262Y-52194354D01*
X31266733Y-52289459D01*
X31295957Y-52386303D01*
X31348353Y-52422929D01*
X31407738Y-52409984D01*
X31455588Y-52318498D01*
X31464545Y-52244448D01*
X31444066Y-52118609D01*
X31389751Y-52020203D01*
X31314623Y-51980461D01*
X31273568Y-51996240D01*
X31254834Y-52060859D01*
X30887504Y-52060859D01*
X30887531Y-52059013D01*
X30887532Y-52057391D01*
X30898459Y-51817118D01*
X30937366Y-51652382D01*
X31013756Y-51550462D01*
X31137132Y-51498639D01*
X31317000Y-51484191D01*
X31423063Y-51490784D01*
X31582203Y-51537392D01*
X31675218Y-51622725D01*
X31691767Y-51739730D01*
X31691294Y-51742053D01*
X31637638Y-51816252D01*
X31545862Y-51839645D01*
X31457961Y-51801193D01*
X31436189Y-51746809D01*
X31492236Y-51685415D01*
X31523495Y-51661315D01*
X31550735Y-51622119D01*
X31506150Y-51594406D01*
X31403155Y-51574431D01*
X31303634Y-51614314D01*
X31256640Y-51722443D01*
X31258430Y-51804955D01*
X31303667Y-51863190D01*
X31414544Y-51918122D01*
X31437748Y-51928122D01*
X31577827Y-52002986D01*
X31688331Y-52082881D01*
X31730959Y-52131360D01*
X31776206Y-52244448D01*
X31784242Y-52264532D01*
X31774297Y-52401200D01*
G37*
G36*
X34042843Y-50946819D02*
G01*
X34183724Y-50982740D01*
X34302148Y-51051376D01*
X34305746Y-51054479D01*
X34363051Y-51110244D01*
X34400581Y-51172046D01*
X34424013Y-51260922D01*
X34439023Y-51397908D01*
X34451289Y-51604040D01*
X34474210Y-52048135D01*
X34697312Y-51560019D01*
X34786545Y-51374266D01*
X34875792Y-51206709D01*
X34949997Y-51085898D01*
X34998875Y-51029913D01*
X35098249Y-50996840D01*
X35279185Y-50987612D01*
X35469358Y-51020241D01*
X35629261Y-51090904D01*
X35707746Y-51150766D01*
X35772039Y-51243799D01*
X35796289Y-51381255D01*
X35798803Y-51486056D01*
X35775492Y-51569294D01*
X35711630Y-51621280D01*
X35644222Y-51642496D01*
X35530983Y-51634649D01*
X35437792Y-51587597D01*
X35399077Y-51513241D01*
X35403564Y-51482023D01*
X35445463Y-51411979D01*
X35506565Y-51374249D01*
X35556082Y-51392506D01*
X35600124Y-51422214D01*
X35648094Y-51389894D01*
X35669769Y-51306591D01*
X35661927Y-51253886D01*
X35588188Y-51162183D01*
X35432661Y-51099446D01*
X35308846Y-51068371D01*
X35309462Y-51648484D01*
X35309497Y-51667668D01*
X35312197Y-51895444D01*
X35318469Y-52096456D01*
X35327428Y-52249548D01*
X35338186Y-52333568D01*
X35356002Y-52379093D01*
X35445438Y-52467873D01*
X35570936Y-52495041D01*
X35703240Y-52451172D01*
X35799629Y-52406229D01*
X35864077Y-52427416D01*
X35889833Y-52477320D01*
X35853817Y-52534231D01*
X35751366Y-52574342D01*
X35595934Y-52589520D01*
X35479136Y-52583125D01*
X35373234Y-52546687D01*
X35282382Y-52462937D01*
X35275428Y-52454782D01*
X35228867Y-52391328D01*
X35198952Y-52320128D01*
X35181932Y-52220565D01*
X35174055Y-52072021D01*
X35171570Y-51853878D01*
X35169641Y-51371403D01*
X34900297Y-51919342D01*
X34835202Y-52049100D01*
X34691245Y-52311776D01*
X34565232Y-52502100D01*
X34450941Y-52629911D01*
X34426666Y-52651402D01*
X34278256Y-52754614D01*
X34135823Y-52789160D01*
X33966661Y-52764104D01*
X33943245Y-52757233D01*
X33873405Y-52717609D01*
X33891371Y-52677024D01*
X33995504Y-52642402D01*
X34103195Y-52603178D01*
X34201962Y-52508986D01*
X34267945Y-52355181D01*
X34304830Y-52132443D01*
X34316306Y-51831448D01*
X34316280Y-51811843D01*
X34306990Y-51512367D01*
X34279975Y-51293682D01*
X34233758Y-51148238D01*
X34166858Y-51068483D01*
X34065991Y-51035729D01*
X33950921Y-51048646D01*
X33873334Y-51107044D01*
X33820505Y-51150744D01*
X33758698Y-51133041D01*
X33729805Y-51057759D01*
X33733737Y-51032578D01*
X33793021Y-50972015D01*
X33904332Y-50943336D01*
X34042843Y-50946819D01*
G37*
G36*
X33939839Y-52401200D02*
G01*
X33872190Y-52514455D01*
X33752363Y-52577388D01*
X33631841Y-52580567D01*
X33473410Y-52511825D01*
X33420708Y-52497683D01*
X33315506Y-52538284D01*
X33240709Y-52577241D01*
X33165044Y-52577659D01*
X33053073Y-52534434D01*
X32987046Y-52502163D01*
X32942448Y-52465500D01*
X32974121Y-52443997D01*
X32979359Y-52442617D01*
X33017254Y-52417684D01*
X33039663Y-52357673D01*
X33050348Y-52244234D01*
X33053046Y-52060859D01*
X33420376Y-52060859D01*
X33422804Y-52194354D01*
X33432275Y-52289459D01*
X33461498Y-52386303D01*
X33513895Y-52422929D01*
X33573279Y-52409984D01*
X33621130Y-52318498D01*
X33630087Y-52244448D01*
X33609607Y-52118609D01*
X33555292Y-52020203D01*
X33480165Y-51980461D01*
X33439109Y-51996240D01*
X33420376Y-52060859D01*
X33053046Y-52060859D01*
X33053073Y-52059013D01*
X33053073Y-52057391D01*
X33064001Y-51817118D01*
X33102908Y-51652382D01*
X33179297Y-51550462D01*
X33302674Y-51498639D01*
X33482542Y-51484191D01*
X33588605Y-51490784D01*
X33747745Y-51537392D01*
X33840759Y-51622725D01*
X33857309Y-51739730D01*
X33856836Y-51742053D01*
X33803179Y-51816252D01*
X33711403Y-51839645D01*
X33623503Y-51801193D01*
X33601731Y-51746809D01*
X33657778Y-51685415D01*
X33689037Y-51661315D01*
X33716277Y-51622119D01*
X33671692Y-51594406D01*
X33568697Y-51574431D01*
X33469176Y-51614314D01*
X33422181Y-51722443D01*
X33423972Y-51804955D01*
X33469209Y-51863190D01*
X33580086Y-51918122D01*
X33603290Y-51928122D01*
X33743368Y-52002986D01*
X33853872Y-52082881D01*
X33896501Y-52131360D01*
X33941747Y-52244448D01*
X33949783Y-52264532D01*
X33939839Y-52401200D01*
G37*
%TO.C,C7*%
X37683000Y-32698748D02*
X37683000Y-33221252D01*
X36213000Y-32698748D02*
X36213000Y-33221252D01*
%TO.C,C2*%
X40763000Y-36758748D02*
X40763000Y-37281252D01*
X42233000Y-36758748D02*
X42233000Y-37281252D01*
%TO.C,R9*%
X46572936Y-27215000D02*
X47027064Y-27215000D01*
X46572936Y-25745000D02*
X47027064Y-25745000D01*
%TO.C,J4*%
X43430000Y-25570000D02*
X40770000Y-25570000D01*
X42100000Y-22910000D02*
X40770000Y-22910000D01*
X43430000Y-25450000D02*
X43430000Y-25570000D01*
X40770000Y-25450000D02*
X40770000Y-25570000D01*
X40770000Y-22910000D02*
X40770000Y-24240000D01*
%TO.C,R7*%
X23905000Y-34499064D02*
X23905000Y-34044936D01*
X22435000Y-34499064D02*
X22435000Y-34044936D01*
%TO.C,R12*%
X49755064Y-35275000D02*
X49300936Y-35275000D01*
X49755064Y-36745000D02*
X49300936Y-36745000D01*
%TO.C,R8*%
X49779064Y-37445000D02*
X49324936Y-37445000D01*
X49779064Y-38915000D02*
X49324936Y-38915000D01*
%TO.C,C3*%
X33723000Y-33181252D02*
X33723000Y-32658748D01*
X35193000Y-33181252D02*
X35193000Y-32658748D01*
%TO.C,R4*%
X30763000Y-37807064D02*
X30763000Y-37352936D01*
X29293000Y-37807064D02*
X29293000Y-37352936D01*
%TO.C,C8*%
X36839252Y-35175000D02*
X36316748Y-35175000D01*
X36839252Y-36645000D02*
X36316748Y-36645000D01*
%TO.C,C5*%
X26363000Y-37288748D02*
X26363000Y-37811252D01*
X27833000Y-37288748D02*
X27833000Y-37811252D01*
%TO.C,R3*%
X34777064Y-39037000D02*
X34322936Y-39037000D01*
X34777064Y-37567000D02*
X34322936Y-37567000D01*
%TO.C,R1*%
X50255064Y-33025000D02*
X49800936Y-33025000D01*
X50255064Y-31555000D02*
X49800936Y-31555000D01*
%TO.C,J2*%
X40770000Y-45830000D02*
X40770000Y-53510000D01*
X43430000Y-43230000D02*
X42100000Y-43230000D01*
X43430000Y-45830000D02*
X40770000Y-45830000D01*
X43430000Y-53510000D02*
X40770000Y-53510000D01*
X43430000Y-45830000D02*
X43430000Y-53510000D01*
X43430000Y-44560000D02*
X43430000Y-43230000D01*
%TO.C,Q1*%
X29358600Y-27779400D02*
X31033600Y-27779400D01*
X29358600Y-27779400D02*
X28708600Y-27779400D01*
X29358600Y-30899400D02*
X28708600Y-30899400D01*
X29358600Y-30899400D02*
X30008600Y-30899400D01*
%TO.C,R10*%
X50695000Y-28604936D02*
X50695000Y-29059064D01*
X52165000Y-28604936D02*
X52165000Y-29059064D01*
%TO.C,D2*%
X39175000Y-43118000D02*
X39175000Y-47418000D01*
X37175000Y-47418000D02*
X37175000Y-43118000D01*
X37175000Y-43118000D02*
X39175000Y-43118000D01*
%TO.C,C6*%
X42536748Y-28135000D02*
X43059252Y-28135000D01*
X42536748Y-26665000D02*
X43059252Y-26665000D01*
%TO.C,J1*%
X30730000Y-45830000D02*
X28070000Y-45830000D01*
X30730000Y-53510000D02*
X28070000Y-53510000D01*
X30730000Y-45830000D02*
X30730000Y-53510000D01*
X30730000Y-43230000D02*
X29400000Y-43230000D01*
X30730000Y-44560000D02*
X30730000Y-43230000D01*
X28070000Y-45830000D02*
X28070000Y-53510000D01*
%TO.C,R2*%
X42857064Y-30535000D02*
X42402936Y-30535000D01*
X42857064Y-29065000D02*
X42402936Y-29065000D01*
%TO.C,J3*%
X28070000Y-25450000D02*
X28070000Y-25570000D01*
X30730000Y-25450000D02*
X30730000Y-25570000D01*
X29400000Y-22910000D02*
X28070000Y-22910000D01*
X28070000Y-22910000D02*
X28070000Y-24240000D01*
X30730000Y-25570000D02*
X28070000Y-25570000D01*
%TO.C,C11*%
X19655000Y-31103252D02*
X19655000Y-30580748D01*
X21125000Y-31103252D02*
X21125000Y-30580748D01*
%TO.C,D3*%
X44492000Y-28995000D02*
X48342000Y-28995000D01*
X44492000Y-30995000D02*
X48342000Y-30995000D01*
X44492000Y-30995000D02*
X44492000Y-28995000D01*
%TO.C,R11*%
X19935000Y-37194936D02*
X19935000Y-37649064D01*
X18465000Y-37194936D02*
X18465000Y-37649064D01*
%TO.C,C10*%
X42513252Y-40305000D02*
X41990748Y-40305000D01*
X42513252Y-41775000D02*
X41990748Y-41775000D01*
%TO.C,C4*%
X22115000Y-29939252D02*
X22115000Y-29416748D01*
X23585000Y-29939252D02*
X23585000Y-29416748D01*
%TO.C,C9*%
X22961752Y-25867000D02*
X22439248Y-25867000D01*
X22961752Y-27337000D02*
X22439248Y-27337000D01*
%TO.C,C1*%
X46355500Y-33361252D02*
X46355500Y-32838748D01*
X47825500Y-33361252D02*
X47825500Y-32838748D01*
%TO.C,D1*%
X34460000Y-48108000D02*
X32460000Y-48108000D01*
X34460000Y-43808000D02*
X34460000Y-48108000D01*
X32460000Y-48108000D02*
X32460000Y-43808000D01*
%TD*%
M02*
