M48
; DRILL file {KiCad (6.0.1)} date Fri May 20 14:02:12 2022
; FORMAT={-:-/ absolute / inch / decimal}
; #@! TF.CreationDate,2022-05-20T14:02:12-07:00
; #@! TF.GenerationSoftware,Kicad,Pcbnew,(6.0.1)
; #@! TF.FileFunction,MixedPlating,1,2
FMAT,2
INCH
; #@! TA.AperFunction,Plated,PTH,ViaDrill
T1C0.0157
; #@! TA.AperFunction,Plated,PTH,ComponentDrill
T2C0.0394
; #@! TA.AperFunction,Plated,PTH,ComponentDrill
T3C0.0433
%
G90
G05
T1
X1.4423Y-1.4592
X1.5302Y-1.4283
T2
X0.7746Y-1.6083
X0.873Y-1.6083
X0.9715Y-1.6083
X1.1575Y-0.9539
X1.1575Y-1.7543
X1.1575Y-1.8543
X1.1575Y-1.9543
X1.1575Y-2.0543
X1.3035Y-1.6083
X1.402Y-1.6083
X1.5004Y-1.6083
X1.6575Y-0.9539
X1.6575Y-1.7543
X1.6575Y-1.8543
X1.6575Y-1.9543
X1.6575Y-2.0543
X1.8313Y-1.6083
X1.9297Y-1.6083
X2.0281Y-1.6083
T3
G00X0.6841Y-1.3268
M15
G01X0.6841Y-1.2992
M16
G05
G00X1.062Y-1.3268
M15
G01X1.062Y-1.2992
M16
G05
G00X1.213Y-1.3268
M15
G01X1.213Y-1.2992
M16
G05
G00X1.5909Y-1.3268
M15
G01X1.5909Y-1.2992
M16
G05
G00X1.7407Y-1.3268
M15
G01X1.7407Y-1.2992
M16
G05
G00X2.1187Y-1.3268
M15
G01X2.1187Y-1.2992
M16
G05
T0
M30
